<?xml version="1.0" encoding="UTF-8"?>
<svg width="9px" height="13px" viewBox="0 0 9 13" version="1.1" xmlns="http://www.w3.org/2000/svg" xmlns:xlink="http://www.w3.org/1999/xlink">
    <!-- Generator: Sketch 47.1 (45422) - http://www.bohemiancoding.com/sketch -->
    <title>Fill 1</title>
    <desc>Created with Sketch.</desc>
    <defs></defs>
    <g id="Page-1" stroke="none" stroke-width="1" fill="none" fill-rule="evenodd">
        <g id="CN-homepage-top-nav" transform="translate(-730.000000, -253.000000)" fill="#99999C">
            <g id="Search-and-Calc" transform="translate(695.000000, 197.000000)">
                <g id="Calculator" transform="translate(13.000000, 34.000000)">
                    <path d="M26.8444567,31.5866348 L25.5445451,31.5866348 L25.5445451,28.9700069 L26.469788,28.9700069 L27.0609099,28.9700069 C27.4159011,28.9700069 28.715614,29.0928596 28.715614,30.0738243 C28.715614,31.054789 28.1048145,31.5866348 26.8444567,31.5866348 L26.8444567,31.5866348 Z M25.5445451,25.3111427 L26.3915746,25.3111427 C26.9821003,25.3111427 28.1441696,25.413262 28.1441696,26.41496 C28.1441696,27.3183553 27.5203511,27.6553492 27.1088118,27.7129073 L25.5445451,27.7129073 L25.5445451,25.3111427 Z M29.4047261,28.0296836 C29.4047261,28.0296836 30.5863737,27.4164518 30.3893993,25.9039507 C30.2177672,24.5870236 28.7178004,24.0913837 27.5138913,23.9853446 L27.5138913,22 L26.3324426,22 L26.3324426,23.9619294 L25.5445451,23.9619294 L25.5445451,22 L24.3627981,22 L24.3627981,23.9619294 L22,23.9619294 L22,25.2295503 L22.8860866,25.2295503 C23.279936,25.2295503 23.4767116,25.3518873 23.4767116,25.6791849 L23.4767116,31.1161637 C23.4767116,31.566211 23.2599602,31.709178 23.0237301,31.709178 L22.1177672,31.709178 L22.0784121,32.9971197 L24.3627981,32.9971197 L24.3627981,35 L25.5445451,35 L25.5445451,32.9971197 L26.3324426,32.9971197 L26.3324426,35 L27.5138913,35 L27.5138913,32.9971197 L27.7700972,32.9971197 C30.1922261,32.9971197 31,31.7703465 31,30.0945576 C31,28.4181498 29.4047261,28.0296836 29.4047261,28.0296836 L29.4047261,28.0296836 Z" id="Fill-1"></path>
                </g>
            </g>
        </g>
    </g>
</svg>