<?xml version="1.0" encoding="utf-8"?>
<!-- Generator: Adobe Illustrator 15.0.0, SVG Export Plug-In . SVG Version: 6.00 Build 0)  -->
<!DOCTYPE svg PUBLIC "-//W3C//DTD SVG 1.1//EN" "http://www.w3.org/Graphics/SVG/1.1/DTD/svg11.dtd">
<svg version="1.1" id="Layer_1" xmlns="http://www.w3.org/2000/svg" xmlns:xlink="http://www.w3.org/1999/xlink" x="0px" y="0px"
	 width="49.791px" height="64.249px" viewBox="60.25 0 49.791 64.249" enable-background="new 60.25 0 49.791 64.249"
	 xml:space="preserve">
<filter  x="-18.0%" y="-11.4%" width="136.0%" height="131.8%" filterUnits="objectBoundingBox" id="filter-6">
	<feOffset  result="shadowOffsetOuter1" in="SourceAlpha" dx="0" dy="1"></feOffset>
	<feGaussianBlur  result="shadowBlurOuter1" stdDeviation="1" in="shadowOffsetOuter1"></feGaussianBlur>
	<feComposite  result="shadowBlurOuter1" in="shadowBlurOuter1" in2="SourceAlpha" operator="out"></feComposite>
	<feColorMatrix  type="matrix" in="shadowBlurOuter1" values="0 0 0 0 1   0 0 0 0 0.643137255   0 0 0 0 0.109803922  0 0 0 1 0">
		</feColorMatrix>
</filter>
<filter  x="-1.5%" y="-2.5%" width="102.9%" height="105.0%" filterUnits="objectBoundingBox" id="filter-4">
	<feGaussianBlur  result="shadowBlurInner1" stdDeviation="0.5" in="SourceAlpha"></feGaussianBlur>
	<feOffset  result="shadowOffsetInner1" in="shadowBlurInner1" dx="0" dy="1"></feOffset>
	<feComposite  result="shadowInnerInner1" in="shadowOffsetInner1" in2="SourceAlpha" operator="arithmetic" k2="-1" k3="1">
		</feComposite>
	<feColorMatrix  type="matrix" in="shadowInnerInner1" values="0 0 0 0 1   0 0 0 0 1   0 0 0 0 1  0 0 0 1 0"></feColorMatrix>
</filter>
<title>Logo2</title>
<desc>Created with Sketch.</desc>
<path id="Path_2_" fill="#FFFFFF" d="M106.837,66.805c0,0.682-0.233,1.277-0.702,1.789c-0.469,0.511-1.091,0.766-1.867,0.766
	c-0.777,0-1.399-0.255-1.867-0.766c-0.469-0.512-0.703-1.107-0.703-1.789s0.234-1.277,0.703-1.789
	c0.468-0.512,1.09-0.767,1.867-0.767c0.754,0,1.37,0.255,1.85,0.767C106.598,65.527,106.837,66.123,106.837,66.805z"/>
<g id="Combined-Shape-Copy-18" transform="translate(35.000000, 40.000000) rotate(-61.000000) translate(-35.000000, -40.000000) ">
	<g>
		
			<radialGradient id="path-3_2_" cx="-436.2778" cy="17.1343" r="0.7003" gradientTransform="matrix(-38.4688 11.9037 11.9037 38.4688 -16910.8711 4612.752)" gradientUnits="userSpaceOnUse">
			<stop  offset="0" style="stop-color:#F6DA7D"/>
			<stop  offset="1" style="stop-color:#FFA41C"/>
		</radialGradient>
		<path id="path-3" fill="url(#path-3_2_)" d="M61.185,68.157c3.559-5.817,10.005-9.703,17.366-9.703
			c11.211,0,20.299,9.014,20.299,20.134c0,11.12-9.088,20.135-20.299,20.134c-7.22,0-13.559-3.739-17.158-9.371l-7.598,0l0,0
			c-1.603,0-2.903-1.299-2.903-2.902l0-0.017c0-1.604,1.3-2.903,2.903-2.903l5.073,0c-0.402-1.58-0.616-3.236-0.616-4.941
			c0-1.586,0.185-3.129,0.534-4.609l-19.642,0c-1.603,0-2.903-1.299-2.903-2.903l0-0.016l0,0c0-1.603,1.3-2.903,2.904-2.904
			L61.185,68.157z M32.839,75.638l9.846,0.001c1.603,0,2.903,1.299,2.903,2.903v0.016c0.001,1.602-1.3,2.903-2.903,2.903l-9.846,0
			c-1.603,0-2.903-1.3-2.903-2.903v-0.016C29.936,76.938,31.236,75.639,32.839,75.638L32.839,75.638z M45.386,84.378l0.064,0
			c1.603,0,2.903,1.299,2.903,2.902l0,0.017c0,1.603-1.299,2.903-2.903,2.903l-0.064,0c-1.603,0-2.903-1.3-2.903-2.903l0-0.016
			C42.484,85.677,43.783,84.378,45.386,84.378z"/>
	</g>
	<g filter="url(#filter-4)">
		<path d="M61.185,68.157c3.559-5.817,10.005-9.703,17.366-9.703c11.211,0,20.299,9.014,20.299,20.134
			c0,11.12-9.088,20.135-20.299,20.134c-7.22,0-13.559-3.739-17.158-9.371l-7.598,0l0,0c-1.603,0-2.903-1.299-2.903-2.902l0-0.017
			c0-1.604,1.3-2.903,2.903-2.903l5.073,0c-0.402-1.58-0.616-3.236-0.616-4.941c0-1.586,0.185-3.129,0.534-4.609l-19.642,0
			c-1.603,0-2.903-1.299-2.903-2.903l0-0.016l0,0c0-1.603,1.3-2.903,2.904-2.904L61.185,68.157z M32.839,75.638l9.846,0.001
			c1.603,0,2.903,1.299,2.903,2.903v0.016c0.001,1.602-1.3,2.903-2.903,2.903l-9.846,0c-1.603,0-2.903-1.3-2.903-2.903v-0.016
			C29.936,76.938,31.236,75.639,32.839,75.638L32.839,75.638z M45.386,84.378l0.064,0c1.603,0,2.903,1.299,2.903,2.902l0,0.017
			c0,1.603-1.299,2.903-2.903,2.903l-0.064,0c-1.603,0-2.903-1.3-2.903-2.903l0-0.016C42.484,85.677,43.783,84.378,45.386,84.378z"
			/>
	</g>
	
		<linearGradient id="SVGID_1_" gradientUnits="userSpaceOnUse" x1="-444.1067" y1="10.0164" x2="-444.1067" y2="9.0164" gradientTransform="matrix(1 0 0 1 0 -5.722046e-06)">
		<stop  offset="0" style="stop-color:#FAD961"/>
		<stop  offset="1" style="stop-color:#F76B1C"/>
	</linearGradient>
	<path fill="none" stroke="url(#SVGID_1_)" stroke-width="1.2096" d="M61.701,68.472l-0.177,0.289l-0.339,0l-22.041,0
		c-1.269,0-2.298,1.029-2.298,2.298l0,0.016c0,1.269,1.028,2.298,2.298,2.299l19.642,0l0.764,0l-0.176,0.744
		c-0.343,1.454-0.518,2.95-0.518,4.47c0,1.633,0.202,3.238,0.597,4.792l0.192,0.754l-5.85,0.001c-1.269,0-2.298,1.028-2.298,2.298
		l0,0.017c0,1.269,1.028,2.297,2.298,2.297l7.93,0l0.178,0.28c3.589,5.617,9.817,9.091,16.649,9.092
		c10.878,0,19.694-8.745,19.694-19.53c0-10.785-8.817-19.529-19.695-19.529C71.585,59.059,65.249,62.675,61.701,68.472z
		 M58.105,82.924l0.763,0l-0.586,0.754C58.219,83.429,58.16,83.177,58.105,82.924z M32.839,76.243c-1.27,0-2.299,1.029-2.299,2.298
		l0,0.016c0,1.269,1.029,2.298,2.299,2.298l9.846,0.001c1.269,0,2.299-1.029,2.299-2.299l0-0.016c0-1.269-1.029-2.298-2.299-2.298
		L32.839,76.243z M45.387,84.983c-1.27,0-2.298,1.029-2.298,2.298l0,0.016c0,1.269,1.028,2.298,2.298,2.298l0.064,0
		c1.269,0,2.298-1.028,2.299-2.299l0-0.016c0-1.269-1.03-2.297-2.299-2.298L45.387,84.983z"/>
</g>
<g id="Combined-Shape-Copy_1_">
	<g filter="url(#filter-6)">
		<path d="M82.832,26.116l-2.01-1.161c-0.724-0.418-0.981-1.327-0.575-2.031c0.183-0.316,0.315-0.546,0.399-0.691
			c0.661-1.146,1.114-1.93,1.358-2.353c0.26-0.451,0.105-0.182,0.434-0.751c0.608-1.053,1.785-3.092,3.531-6.116
			c0.406-0.704,1.322-0.936,2.047-0.518l1.297,0.749l1.084-2.129l0,0c0.43-0.843,1.461-1.178,2.305-0.749l0,0l0,0
			c0.842,0.429,1.178,1.461,0.748,2.304l-1.166,2.289l1.388,0.802c0.03-0.15,0.081-0.299,0.153-0.442l1.711-3.357
			c0.43-0.843,1.461-1.178,2.304-0.749c0.843,0.429,1.179,1.461,0.749,2.304l-1.711,3.357l0,0c-0.102,0.2-0.236,0.371-0.396,0.51
			l2.263,1.307c0.725,0.418,0.981,1.327,0.575,2.031l-0.899,1.558c-0.406,0.704-1.322,0.936-2.047,0.518l-6.48-3.742
			c-0.725-0.418-1.641-0.186-2.047,0.518l-0.962,1.667c-0.406,0.704-0.149,1.613,0.575,2.031l6.48,3.742
			c0.471,0.271,0.744,0.751,0.767,1.247c0.013,0.267-0.049,0.538-0.19,0.784l-0.918,1.59c-0.407,0.704-1.323,0.936-2.047,0.518
			l-1.797-1.037l-0.585,1.148c-0.429,0.843-1.461,1.178-2.304,0.749s-1.178-1.461-0.748-2.304l0.666-1.309l-1.002-0.578
			c-0.012,0.028-0.025,0.057-0.04,0.084l-1.71,3.357l0,0c-0.43,0.843-1.461,1.178-2.305,0.749l0,0
			c-0.843-0.43-1.178-1.461-0.749-2.304l1.711-3.357l0,0C82.73,26.266,82.779,26.188,82.832,26.116z"/>
	</g>
	<g>
		<path id="path-5_1_" fill="#FFFFFF" fill-opacity="0.71" d="M82.832,26.116l-2.01-1.161c-0.724-0.418-0.981-1.327-0.575-2.031
			c0.183-0.316,0.315-0.546,0.399-0.691c0.661-1.146,1.114-1.93,1.358-2.353c0.26-0.451,0.105-0.182,0.434-0.751
			c0.608-1.053,1.785-3.092,3.531-6.116c0.406-0.704,1.322-0.936,2.047-0.518l1.297,0.749l1.084-2.129l0,0
			c0.43-0.843,1.461-1.178,2.305-0.749l0,0l0,0c0.842,0.429,1.178,1.461,0.748,2.304l-1.166,2.289l1.388,0.802
			c0.03-0.15,0.081-0.299,0.153-0.442l1.711-3.357c0.43-0.843,1.461-1.178,2.304-0.749c0.843,0.429,1.179,1.461,0.749,2.304
			l-1.711,3.357l0,0c-0.102,0.2-0.236,0.371-0.396,0.51l2.263,1.307c0.725,0.418,0.981,1.327,0.575,2.031l-0.899,1.558
			c-0.406,0.704-1.322,0.936-2.047,0.518l-6.48-3.742c-0.725-0.418-1.641-0.186-2.047,0.518l-0.962,1.667
			c-0.406,0.704-0.149,1.613,0.575,2.031l6.48,3.742c0.471,0.271,0.744,0.751,0.767,1.247c0.013,0.267-0.049,0.538-0.19,0.784
			l-0.918,1.59c-0.407,0.704-1.323,0.936-2.047,0.518l-1.797-1.037l-0.585,1.148c-0.429,0.843-1.461,1.178-2.304,0.749
			s-1.178-1.461-0.748-2.304l0.666-1.309l-1.002-0.578c-0.012,0.028-0.025,0.057-0.04,0.084l-1.71,3.357l0,0
			c-0.43,0.843-1.461,1.178-2.305,0.749l0,0c-0.843-0.43-1.178-1.461-0.749-2.304l1.711-3.357l0,0
			C82.73,26.266,82.779,26.188,82.832,26.116z"/>
	</g>
</g>
</svg>
