<?xml version="1.0" encoding="UTF-8"?>
<svg width="179px" height="53px" viewBox="0 0 179 53" version="1.1" xmlns="http://www.w3.org/2000/svg" xmlns:xlink="http://www.w3.org/1999/xlink">
    <!-- Generator: Sketch 46.2 (44496) - http://www.bohemiancoding.com/sketch -->
    <title>Logo1</title>
    <desc>Created with Sketch.</desc>
    <defs>
        <radialGradient cx="67.1129015%" cy="50%" fx="67.1129015%" fy="50%" r="70.0574142%" gradientTransform="translate(0.671129,0.500000),scale(0.590620,1.000000),rotate(101.683631),translate(-0.671129,-0.500000)" id="radialGradient-1">
            <stop stop-color="#F6DA7D" offset="0%"></stop>
            <stop stop-color="#FFA41C" offset="100%"></stop>
        </radialGradient>
        <linearGradient x1="50%" y1="0%" x2="50%" y2="100%" id="linearGradient-2">
            <stop stop-color="#FAD961" offset="0%"></stop>
            <stop stop-color="#F76B1C" offset="100%"></stop>
        </linearGradient>
        <path d="M26.3421861,24.7640465 C29.2910819,19.8923924 34.6319983,16.6375839 40.7311685,16.6375839 C50.0201667,16.6375839 57.5503876,24.1871447 57.5503876,33.5 C57.5503876,42.8128553 50.0201667,50.3624161 40.7311685,50.3624161 C34.7488346,50.3624161 29.4959824,47.2311122 26.514276,42.5141278 L20.2327414,42.5141278 C18.8967019,42.5141278 17.8136279,41.4310538 17.8136279,40.0950143 L17.8136279,40.057362 C17.8136279,38.7213225 18.8967019,37.6382485 20.2327414,37.6382485 L24.4221654,37.6382485 C24.0889545,36.3141822 23.9119494,34.9278151 23.9119494,33.5 C23.9119494,32.1718515 24.0651058,30.8795666 24.3546779,29.6399288 L8.09335547,29.6399288 C6.75731595,29.6399288 5.67424192,28.5568548 5.67424192,27.2208153 L5.67424192,27.183163 C5.67424192,25.8471235 6.75731595,24.7640495 8.09335547,24.7640495 L26.3421843,24.7640495 Z M2.86872595,31.029632 L10.9995353,31.029632 C12.3355748,31.029632 13.4186488,32.112706 13.4186488,33.4487456 L13.4186488,33.4863978 C13.4186488,34.8224373 12.3355748,35.9055114 10.9995353,35.9055114 L2.86872595,35.9055114 C1.53268643,35.9055114 0.449612403,34.8224373 0.449612403,33.4863978 L0.449612403,33.4487456 C0.449612403,32.112706 1.53268643,31.029632 2.86872595,31.029632 L2.86872595,31.029632 Z M13.2654615,38.3490052 L13.290623,38.3490052 C14.6266626,38.3490052 15.7097366,39.4320792 15.7097366,40.7681187 L15.7097366,40.805771 C15.7097366,42.1418105 14.6266626,43.2248845 13.290623,43.2248845 L13.2654615,43.2248845 C11.929422,43.2248845 10.8463479,42.1418105 10.8463479,40.805771 L10.8463479,40.7681187 C10.8463479,39.4320792 11.929422,38.3490052 13.2654615,38.3490052 Z" id="path-3"></path>
        <filter x="-1.8%" y="-3.0%" width="103.5%" height="105.9%" filterUnits="objectBoundingBox" id="filter-4">
            <feGaussianBlur stdDeviation="0.5" in="SourceAlpha" result="shadowBlurInner1"></feGaussianBlur>
            <feOffset dx="0" dy="1" in="shadowBlurInner1" result="shadowOffsetInner1"></feOffset>
            <feComposite in="shadowOffsetInner1" in2="SourceAlpha" operator="arithmetic" k2="-1" k3="1" result="shadowInnerInner1"></feComposite>
            <feColorMatrix values="0 0 0 0 1   0 0 0 0 1   0 0 0 0 1  0 0 0 1 0" type="matrix" in="shadowInnerInner1"></feColorMatrix>
        </filter>
        <path d="M28.8505025,27.7647457 L27.1629318,26.7904263 C26.5631163,26.4441226 26.3527409,25.6855652 26.6930452,25.0961408 C26.8459008,24.8313871 26.9573925,24.6382779 27.0275201,24.5168133 C27.5812852,23.557664 27.9604518,22.9009281 28.1650201,22.5466056 C28.3827469,22.1694916 28.2527724,22.3946141 28.5281999,21.9175597 C29.0374443,21.0355224 30.0232182,19.328112 31.4855214,16.7953286 C31.8258257,16.2059042 32.5879435,16.0088159 33.187759,16.3551195 L34.2299796,16.9568459 L35.1433291,15.1642965 L35.1433291,15.1642965 C35.4991736,14.4659124 36.3537948,14.1882291 37.0521789,14.5440736 L37.0521789,14.5440736 L37.0521789,14.5440736 C37.7505631,14.8999181 38.0282464,15.7545393 37.6724019,16.4529234 L36.6915183,18.3780159 L37.8354693,19.0384763 C37.8610356,18.9276427 37.9004345,18.8181177 37.9544088,18.7121873 L39.4009962,15.8730997 L39.4009962,15.8730997 C39.7568407,15.1747156 40.6114618,14.8970323 41.309846,15.2528768 C42.0082301,15.6087213 42.2859134,16.4633425 41.9300689,17.1617266 L40.4834815,20.0008142 C40.4058445,20.1531855 40.3044651,20.2855309 40.186146,20.3956402 L42.0773783,21.4875436 C42.6771938,21.8338473 42.8875692,22.5924047 42.5472648,23.1818291 L41.7941614,24.4862425 C41.4538571,25.0756669 40.6917394,25.2727552 40.0919239,24.9264515 L34.7219502,21.8260958 C34.1221347,21.4797921 33.360017,21.6768804 33.0197126,22.2663048 L32.2139447,23.6619359 C31.8736403,24.2513603 32.0840157,25.0099178 32.6838312,25.3562214 L38.0538049,28.4565771 C38.4437682,28.6817226 38.6691228,29.0811195 38.6855599,29.4950025 C38.6944053,29.7177267 38.6427508,29.9446459 38.5236914,30.1508627 L37.7547887,31.4826413 C37.4144843,32.0720657 36.6523666,32.269154 36.0525511,31.9228504 L34.5917394,31.0794504 L34.096981,32.0504686 L34.096981,32.0504686 C33.7411365,32.7488527 32.8865153,33.026536 32.1881311,32.6706915 C31.489747,32.314847 31.2120637,31.4602258 31.5679082,30.7618417 L32.1302008,29.6582804 L31.3014979,29.1798285 C31.2964413,29.1903797 31.2912427,29.200898 31.2859013,29.211381 L29.8393139,32.0504686 L29.8393139,32.0504686 C29.4834694,32.7488527 28.6288482,33.026536 27.9304641,32.6706915 C27.2320799,32.314847 26.9543967,31.4602258 27.3102412,30.7618417 L28.7568286,27.9227541 C28.7850293,27.8674071 28.8163626,27.8147023 28.8505025,27.7647457 Z" id="path-5"></path>
        <filter x="-21.6%" y="-13.6%" width="143.3%" height="138.0%" filterUnits="objectBoundingBox" id="filter-6">
            <feOffset dx="0" dy="1" in="SourceAlpha" result="shadowOffsetOuter1"></feOffset>
            <feGaussianBlur stdDeviation="1" in="shadowOffsetOuter1" result="shadowBlurOuter1"></feGaussianBlur>
            <feComposite in="shadowBlurOuter1" in2="SourceAlpha" operator="out" result="shadowBlurOuter1"></feComposite>
            <feColorMatrix values="0 0 0 0 1   0 0 0 0 0.643137255   0 0 0 0 0.109803922  0 0 0 1 0" type="matrix" in="shadowBlurOuter1"></feColorMatrix>
        </filter>
    </defs>
    <g id="Page-1" stroke="none" stroke-width="1" fill="none" fill-rule="evenodd">
        <g id="Logo1" transform="translate(-10.000000, -6.000000)">
            <g id="coinninja" transform="translate(53.000000, 18.000000)">
                <path d="M8.904421,13.6517501 C9.51429136,13.6517501 10.1241526,13.7038048 10.7340229,13.8079157 C11.3438933,13.9120266 11.9299318,14.053994 12.492156,14.233822 C13.0543803,14.4136499 13.5784798,14.6360654 14.0644702,14.9010751 C14.5504606,15.1660847 14.9745048,15.4594839 15.3366153,15.7812813 L14.1931141,17.4849063 C13.4117177,16.8980992 12.6160394,16.4438038 11.8060553,16.1220063 C10.9960712,15.8002089 10.1241603,15.6393126 9.1902963,15.6393126 C8.50419214,15.6393126 7.87527277,15.7481542 7.30351931,15.9658407 C6.73176584,16.1835272 6.23625361,16.5337133 5.81696774,17.0164094 C5.39768186,17.4991056 5.06892855,18.1190296 4.83069794,18.8762001 C4.59246733,19.6333705 4.47335382,20.5419614 4.47335382,21.602 C4.47335382,22.6620387 4.59246733,23.5706296 4.83069794,24.3278 C5.06892855,25.0849705 5.40721094,25.7048945 5.84555527,26.1875906 C6.28389959,26.6702868 6.81276361,27.0204729 7.43216319,27.2381594 C8.05156278,27.4558459 8.7328921,27.5646875 9.4761716,27.5646875 C10.4100356,27.5646875 11.2819465,27.4037912 12.0919306,27.0819938 C12.9019147,26.7601963 13.697593,26.3059009 14.4789894,25.7190938 L15.6224906,27.4227188 C15.2603801,27.7445162 14.8363359,28.0379153 14.3503455,28.302925 C13.8643551,28.5679347 13.3402556,28.7903501 12.7780313,28.9701781 C12.2158071,29.1500061 11.6297686,29.2919734 11.0198982,29.3960844 C10.4100279,29.5001953 9.80016666,29.55225 9.1902963,29.55225 C7.83714644,29.55225 6.60313039,29.377157 5.48821114,29.0269656 C4.37329189,28.6767743 3.42514828,28.1656919 2.64375188,27.4937031 C1.86235548,26.8217144 1.25725881,25.9935716 0.828443714,25.00925 C0.399628617,24.0249284 0.185224285,22.8891898 0.185224285,21.602 C0.185224285,20.3337395 0.399628617,19.2027331 0.828443714,18.2089469 C1.25725881,17.2151607 1.8528264,16.3822857 2.61516435,15.7102969 C3.3775023,15.0383082 4.29229412,14.5272258 5.35956725,14.1770345 C6.42684038,13.8268431 7.60844648,13.6517501 8.904421,13.6517501 Z M25.5804803,27.7066563 C26.1903506,27.7066563 26.7620955,27.5930824 27.2957321,27.3659313 C27.8293687,27.1387801 28.2962937,26.7838618 28.6965211,26.3011656 C29.0967485,25.8184695 29.4159727,25.189081 29.6542033,24.4129813 C29.892434,23.6368816 30.0115475,22.6998972 30.0115475,21.602 C30.0115475,20.5041029 29.892434,19.5671185 29.6542033,18.7910188 C29.4159727,18.0149191 29.0967485,17.3855306 28.6965211,16.9028344 C28.2962937,16.4201383 27.8293687,16.06522 27.2957321,15.8380688 C26.7620955,15.6109177 26.1903506,15.4973438 25.5804803,15.4973438 C24.9706099,15.4973438 24.398865,15.6109177 23.8652285,15.8380688 C23.3315919,16.06522 22.8646669,16.4201383 22.4644395,16.9028344 C22.0642121,17.3855306 21.7449878,18.0149191 21.5067572,18.7910188 C21.2685266,19.5671185 21.1494131,20.5041029 21.1494131,21.602 C21.1494131,22.6998972 21.2685266,23.6368816 21.5067572,24.4129813 C21.7449878,25.189081 22.0642121,25.8184695 22.4644395,26.3011656 C22.8646669,26.7838618 23.3315919,27.1387801 23.8652285,27.3659313 C24.398865,27.5930824 24.9706099,27.7066563 25.5804803,27.7066563 Z M25.5804803,13.6517501 C26.8573964,13.6517501 28.0342379,13.8268431 29.1110403,14.1770345 C30.1878426,14.5272258 31.107399,15.0383082 31.8697369,15.7102969 C32.6320749,16.3822857 33.2276425,17.2151607 33.6564576,18.2089469 C34.0852727,19.2027331 34.299677,20.3337395 34.299677,21.602 C34.299677,22.8891898 34.0852727,24.0249284 33.6564576,25.00925 C33.2276425,25.9935716 32.6320749,26.8217144 31.8697369,27.4937031 C31.107399,28.1656919 30.1878426,28.6767743 29.1110403,29.0269656 C28.0342379,29.377157 26.8573964,29.55225 25.5804803,29.55225 C24.2845058,29.55225 23.1028997,29.377157 22.0356265,29.0269656 C20.9683534,28.6767743 20.0535616,28.1656919 19.2912236,27.4937031 C18.5288857,26.8217144 17.9333181,25.9935716 17.504503,25.00925 C17.0756879,24.0249284 16.8612836,22.8891898 16.8612836,21.602 C16.8612836,20.3337395 17.0756879,19.2027331 17.504503,18.2089469 C17.9333181,17.2151607 18.5288857,16.3822857 19.2912236,15.7102969 C20.0535616,15.0383082 20.9683534,14.5272258 22.0356265,14.1770345 C23.1028997,13.8268431 24.2845058,13.6517501 25.5804803,13.6517501 Z M41.684789,28.984375 L37.6825347,28.984375 L37.6825347,14.5035626 L41.684789,14.5035626 L41.684789,28.984375 Z M41.8277266,10.6704063 C41.8277266,11.2382842 41.6323805,11.7351698 41.2416823,12.1610782 C40.8509841,12.5869866 40.3316491,12.7999376 39.6836619,12.7999376 C39.0356746,12.7999376 38.5163397,12.5869866 38.1256415,12.1610782 C37.7349433,11.7351698 37.5395971,11.2382842 37.5395971,10.6704063 C37.5395971,10.1025285 37.7349433,9.60564286 38.1256415,9.17973448 C38.5163397,8.75382611 39.0356746,8.54087511 39.6836619,8.54087511 C40.3125907,8.54087511 40.8271611,8.75382611 41.2273885,9.17973448 C41.6276159,9.60564286 41.8277266,10.1025285 41.8277266,10.6704063 Z M61.5054766,28.984375 L57.5032224,28.984375 L57.5032224,20.0403438 C57.5032224,18.677437 57.1601754,17.6978624 56.4740713,17.1015907 C55.7879671,16.505319 54.7969426,16.2071876 53.5009681,16.2071876 L49.7845892,16.2071876 L49.7845892,28.984375 L45.782335,28.984375 L45.782335,14.2196251 L53.5009681,14.2196251 C56.2263263,14.2196251 58.241727,14.7070462 59.5472308,15.6819032 C60.8527345,16.6567601 61.5054766,18.1095592 61.5054766,20.0403438 L61.5054766,28.984375 Z" fill="#FFA41C"></path>
                <path d="M81.0402889,28.984375 L77.0380347,28.984375 L77.0380347,20.0403438 C77.0380347,18.677437 76.6949877,17.6978624 76.0088836,17.1015907 C75.3227794,16.505319 74.331755,16.2071876 73.0357804,16.2071876 L69.3194015,16.2071876 L69.3194015,28.984375 L65.3171473,28.984375 L65.3171473,14.2196251 L73.0357804,14.2196251 C75.7611386,14.2196251 77.7765393,14.7070462 79.0820431,15.6819032 C80.3875468,16.6567601 81.0402889,18.1095592 81.0402889,20.0403438 L81.0402889,28.984375 Z" id="Path" fill="#FFFFFF"></path>
                <polygon id="Path" fill="#FFFFFF" points="88.9971515 28.984375 84.9948972 28.984375 84.9948972 14.5035626 88.9971515 14.5035626"></polygon>
                <path d="M89.1400891,10.6704063 C89.1400891,11.2382842 88.944743,11.7351698 88.5540448,12.1610782 C88.1633466,12.5869866 87.6440116,12.7999376 86.9960244,12.7999376 C86.3480371,12.7999376 85.8287022,12.5869866 85.438004,12.1610782 C85.0473058,11.7351698 84.8519596,11.2382842 84.8519596,10.6704063 C84.8519596,10.1025285 85.0473058,9.60564286 85.438004,9.17973448 C85.8287022,8.75382611 86.3480371,8.54087511 86.9960244,8.54087511 C87.6249532,8.54087511 88.1395236,8.75382611 88.539751,9.17973448 C88.9399784,9.60564286 89.1400891,10.1025285 89.1400891,10.6704063 Z" id="Path" fill="#FFFFFF"></path>
                <path d="M108.817839,28.984375 L104.815585,28.984375 L104.815585,20.0403438 C104.815585,18.677437 104.472538,17.6978624 103.786434,17.1015907 C103.10033,16.505319 102.109305,16.2071876 100.813331,16.2071876 L97.0969517,16.2071876 L97.0969517,28.984375 L93.0946975,28.984375 L93.0946975,14.2196251 L100.813331,14.2196251 C103.538689,14.2196251 105.55409,14.7070462 106.859593,15.6819032 C108.165097,16.6567601 108.817839,18.1095592 108.817839,20.0403438 L108.817839,28.984375 Z" id="Path" fill="#FFFFFF"></path>
                <path d="M117.060577,28.984375 C117.060577,29.7983332 116.92717,30.5507601 116.660352,31.2416781 C116.393533,31.9325961 116.007605,32.5335912 115.502557,33.0446812 C114.997508,33.5557713 114.373353,33.9532798 113.630073,34.2372187 C112.886794,34.5211576 112.029177,34.663125 111.057196,34.663125 C110.561676,34.663125 110.032812,34.6158025 109.470588,34.5211562 C108.908363,34.4265099 108.341383,34.2372201 107.76963,33.9532812 L108.34138,32.1076875 C108.627257,32.2591216 108.965539,32.3916244 109.356238,32.5052 C109.746936,32.6187755 110.123334,32.6755625 110.485445,32.6755625 C110.847556,32.6755625 111.185838,32.6093111 111.500302,32.4768062 C111.814767,32.3443014 112.086346,32.1313504 112.315047,31.8379469 C112.543748,31.5445433 112.724801,31.1659638 112.85821,30.7021969 C112.991619,30.23843 113.058323,29.6658284 113.058323,28.984375 L113.058323,14.5035626 L117.060577,14.5035626 L117.060577,28.984375 Z" id="Path" fill="#FFFFFF"></path>
                <path d="M131.735509,19.6144376 C131.735509,18.2515307 131.378169,17.2482949 130.663477,16.6047001 C129.948785,15.9611052 129.019699,15.6393126 127.876193,15.6393126 C127.018562,15.6393126 126.180003,15.7670832 125.36049,16.0226282 C124.540977,16.2781732 123.807237,16.6236271 123.15925,17.0590001 L122.158687,15.3553751 C122.577972,15.0714362 123.040133,14.8253595 123.545182,14.6171376 C124.050231,14.4089157 124.569566,14.2338227 125.103202,14.0918532 C125.636839,13.9498837 126.165703,13.8410421 126.68981,13.7653251 C127.213917,13.689608 127.704665,13.6517501 128.162068,13.6517501 C129.381809,13.6517501 130.458595,13.7937174 131.392459,14.0776563 C132.326323,14.3615952 133.117237,14.7685683 133.765224,15.2985876 C134.413211,15.8286069 134.903959,16.4579954 135.237482,17.1867719 C135.571004,17.9155485 135.737763,18.7247623 135.737763,19.6144376 L135.737763,28.984375 L127.733255,28.984375 C125.141306,28.984375 123.230725,28.596331 122.001455,27.8202313 C120.772185,27.0441315 120.157559,25.870535 120.157559,24.2994063 C120.157559,22.7282776 120.772185,21.554681 122.001455,20.7785813 C123.230725,20.0024816 125.141306,19.6144376 127.733255,19.6144376 L131.735509,19.6144376 Z M124.445689,24.2994063 C124.445689,26.0976861 125.541533,26.9968125 127.733255,26.9968125 L131.735509,26.9968125 L131.735509,21.602 L127.733255,21.602 C125.541533,21.602 124.445689,22.5011265 124.445689,24.2994063 Z" id="Combined-Shape" fill="#FFFFFF"></path>
                <path d="M120.217675,6.91957872 L121.930458,6.11576432 C122.058452,6.05569612 122.140186,5.92705143 122.140186,5.78566274 L122.140186,5.78566274 L122.140186,0.373413326 C122.140186,0.281185268 122.105238,0.192383183 122.042381,0.124892488 C121.905127,-0.0224795549 121.674391,-0.030681632 121.527019,0.106572636 L121.527019,0.106572636 L112.452522,8.55806402 L112.452522,8.55806402 C112.428746,8.58020715 112.408037,8.60542848 112.390943,8.63305822 C112.368097,8.66998666 112.352638,8.70940092 112.344161,8.74957426 C112.312536,8.83046537 112.309531,8.92287304 112.342504,9.01057012 L112.342504,9.01057012 L112.911824,10.5247689 C112.961655,10.6573016 113.083702,10.7490065 113.224867,10.7599855 L122.518109,11.4827646 C122.661803,11.4939403 122.798597,11.41943 122.867146,11.2926474 L125.502795,6.41798476 C125.543898,6.34196368 125.556665,6.25381496 125.538819,6.169256 C125.497233,5.97220814 125.303782,5.84618136 125.106735,5.88776733 L125.106735,5.88776733 L120.217675,6.91957872 Z" id="Combined-Shape-Copy" fill="#FFA41C"></path>
            </g>
            <g id="Coin-Icon">
                <g id="Combined-Shape-Copy-18" transform="translate(29.000000, 33.500000) rotate(-61.000000) translate(-29.000000, -33.500000) ">
                    <use fill="url(#radialGradient-1)" fill-rule="evenodd" xlink:href="#path-3"></use>
                    <use fill="black" fill-opacity="1" filter="url(#filter-4)" xlink:href="#path-3"></use>
                    <path stroke="url(#linearGradient-2)" stroke-width="1.00796398" d="M26.7733324,25.0250267 L26.6262393,25.2680285 L26.3421843,25.2680315 L8.09335547,25.2680315 C7.03565752,25.2680315 6.17822391,26.1254651 6.17822391,27.183163 L6.17822391,27.2208153 C6.17822391,28.2785132 7.03565752,29.1359469 8.09335547,29.1359469 L24.3546779,29.1359469 L24.9899547,29.1359469 L24.845448,29.7545699 C24.5609754,30.9723772 24.4159314,32.226509 24.4159314,33.5 C24.4159314,34.8679683 24.5832981,36.2134406 24.9109086,37.5152527 L25.0686921,38.1422305 L20.2327414,38.1422305 C19.1750435,38.1422305 18.3176099,38.9996641 18.3176099,40.057362 L18.3176099,40.0950143 C18.3176099,41.1527122 19.1750435,42.0101458 20.2327414,42.0101458 L26.7919278,42.0101458 L26.9402828,42.2448398 C29.9136513,46.9486337 35.0735033,49.8584341 40.7311685,49.8584341 C49.7415353,49.8584341 57.0464056,42.5348027 57.0464056,33.5 C57.0464056,24.4651973 49.7415353,17.1415659 40.7311685,17.1415659 C34.9609844,17.1415659 29.7127499,20.1690309 26.7733324,25.0250267 Z M23.7879919,37.1342665 L24.4221654,37.1342665 L23.9334222,37.7612442 C23.8810833,37.5532672 23.8325978,37.3442485 23.787991,37.1342665 Z M2.86872595,31.533614 C1.811028,31.533614 0.953594392,32.3910476 0.953594392,33.4487456 L0.953594392,33.4863978 C0.953594392,34.5440958 1.811028,35.4015294 2.86872595,35.4015294 L10.9995353,35.4015294 C12.0572332,35.4015294 12.9146668,34.5440958 12.9146668,33.4863978 L12.9146668,33.4487456 C12.9146668,32.3910476 12.0572332,31.533614 10.9995353,31.533614 L2.86872595,31.533614 Z M13.2654615,38.8529871 C12.2077635,38.8529871 11.3503299,39.7104208 11.3503299,40.7681187 L11.3503299,40.805771 C11.3503299,41.8634689 12.2077635,42.7209025 13.2654615,42.7209025 L13.290623,42.7209025 C14.348321,42.7209025 15.2057546,41.8634689 15.2057546,40.805771 L15.2057546,40.7681187 C15.2057546,39.7104208 14.348321,38.8529871 13.290623,38.8529871 L13.2654615,38.8529871 Z"></path>
                </g>
                <g id="Combined-Shape-Copy">
                    <use fill="black" fill-opacity="1" filter="url(#filter-6)" xlink:href="#path-5"></use>
                    <use fill-opacity="0.709999979" fill="#FFFFFF" fill-rule="evenodd" xlink:href="#path-5"></use>
                </g>
            </g>
        </g>
    </g>
</svg>