<?xml version="1.0" encoding="UTF-8"?>
<svg width="163px" height="96px" viewBox="0 0 163 96" version="1.1" xmlns="http://www.w3.org/2000/svg" xmlns:xlink="http://www.w3.org/1999/xlink">
    <!-- Generator: Sketch 46.2 (44496) - http://www.bohemiancoding.com/sketch -->
    <title>Logo2</title>
    <desc>Created with Sketch.</desc>
    <defs>
        <radialGradient cx="67.1129015%" cy="50%" fx="67.1129015%" fy="50%" r="70.0574142%" gradientTransform="translate(0.671129,0.500000),scale(0.584323,1.000000),rotate(101.806017),translate(-0.671129,-0.500000)" id="radialGradient-1">
            <stop stop-color="#F6DA7D" offset="0%"></stop>
            <stop stop-color="#FFA41C" offset="100%"></stop>
        </radialGradient>
        <linearGradient x1="50%" y1="0%" x2="50%" y2="100%" id="linearGradient-2">
            <stop stop-color="#FAD961" offset="0%"></stop>
            <stop stop-color="#F76B1C" offset="100%"></stop>
        </linearGradient>
        <path d="M31.7922936,29.5690107 C35.3513057,23.7521103 41.7972393,19.8657718 49.1583068,19.8657718 C60.3691667,19.8657718 69.4573643,28.8801728 69.4573643,40 C69.4573643,51.1198272 60.3691667,60.1342282 49.1583068,60.1342282 C41.9382487,60.1342282 35.5985995,56.3953578 31.9999883,50.7631377 L24.4021424,50.7631377 L24.4021424,50.7631377 C22.7988949,50.7631377 21.4992061,49.4634488 21.4992061,47.8602013 L21.4992061,47.8441286 C21.4992061,46.2408811 22.7988949,44.9411922 24.4021424,44.9411922 L29.4750272,44.9411922 C29.0728762,43.3602175 28.8592493,41.7048538 28.8592493,40 C28.8592493,38.4141511 29.0440932,36.8711243 29.3935768,35.3909598 L9.75115938,35.3909598 C8.14791189,35.3909598 6.84822301,34.0912709 6.84822301,32.4880234 L6.84822301,32.4719507 L6.84822301,32.4719507 C6.84822301,30.8687032 8.14791189,29.5690143 9.75115938,29.5690143 L31.7922914,29.5690143 Z M3.44557203,37.0503069 L13.2919846,37.0503069 C14.8952321,37.0503069 16.194921,38.3499958 16.194921,39.9532432 L16.194921,39.969316 C16.194921,41.5725635 14.8952321,42.8722524 13.2919846,42.8722524 L3.44557203,42.8722524 C1.84232454,42.8722524 0.542635659,41.5725635 0.542635659,39.969316 L0.542635659,39.9532432 C0.542635659,38.3499958 1.84232454,37.0503069 3.44557203,37.0503069 L3.44557203,37.0503069 Z M15.9933563,45.7898569 L16.0570906,45.7898569 C17.660338,45.7898569 18.9600269,47.0895458 18.9600269,48.6927933 L18.9600269,48.708866 C18.9600269,50.3121135 17.660338,51.6118024 16.0570906,51.6118024 L15.9933563,51.6118024 C14.3901088,51.6118024 13.0904199,50.3121135 13.0904199,48.708866 L13.0904199,48.6927933 C13.0904199,47.0895458 14.3901088,45.7898569 15.9933563,45.7898569 Z" id="path-3"></path>
        <filter x="-1.5%" y="-2.5%" width="102.9%" height="105.0%" filterUnits="objectBoundingBox" id="filter-4">
            <feGaussianBlur stdDeviation="0.5" in="SourceAlpha" result="shadowBlurInner1"></feGaussianBlur>
            <feOffset dx="0" dy="1" in="shadowBlurInner1" result="shadowOffsetInner1"></feOffset>
            <feComposite in="shadowOffsetInner1" in2="SourceAlpha" operator="arithmetic" k2="-1" k3="1" result="shadowInnerInner1"></feComposite>
            <feColorMatrix values="0 0 0 0 1   0 0 0 0 1   0 0 0 0 1  0 0 0 1 0" type="matrix" in="shadowInnerInner1"></feColorMatrix>
        </filter>
        <path d="M34.8315387,33.1159837 L32.8216086,31.95555 C32.0976933,31.5375973 31.8402424,30.628245 32.2465759,29.9244546 C32.4290901,29.6083308 32.5622144,29.3777527 32.6459489,29.2327203 C33.307161,28.0874675 33.7598972,27.3033052 34.0041578,26.8802335 C34.2641302,26.4299482 34.1089367,26.6987511 34.4378054,26.1291339 C35.0458584,25.0759551 36.2229018,23.0372561 37.9689355,20.0130371 C38.3752691,19.3092467 39.2915168,19.0775295 40.0154321,19.4954822 L41.3118111,20.243947 L42.3967661,18.1146029 L42.3967661,18.1146029 C42.8262336,17.2717255 43.857673,16.9365905 44.7005504,17.366058 L44.7005504,17.366058 L44.7005504,17.366058 C45.5434278,17.7955255 45.8785628,18.8269649 45.4490953,19.6698423 L44.2826336,21.9591522 L45.6706714,22.7605362 C45.7007525,22.6102815 45.7516557,22.4615926 45.8246417,22.3183496 L47.5353298,18.9609351 C47.9647973,18.1180577 48.9962367,17.7829227 49.8391141,18.2123902 C50.6819915,18.6418577 51.0171265,19.6732971 50.587659,20.5161745 L48.8769708,23.873589 L48.8769708,23.873589 C48.7753319,24.0730666 48.639977,24.244106 48.4813849,24.3833024 L50.7442829,25.6897872 C51.4681982,26.1077399 51.7256491,27.0170922 51.3193155,27.7208826 L50.4200876,29.278391 C50.0137541,29.9821814 49.0975064,30.2138986 48.3735911,29.7959459 L41.8925884,26.0541372 C41.1686731,25.6361845 40.2524254,25.8679017 39.8460919,26.5716921 L38.8839809,28.2381172 C38.4776473,28.9419075 38.7350982,29.8512599 39.4590135,30.2692126 L45.9400162,34.0110212 C46.4106615,34.2827485 46.6841415,34.7621807 46.7062325,35.2577922 C46.7181204,35.5244972 46.6572092,35.7958876 46.5150488,36.0421166 L45.5969559,37.6323001 C45.1906224,38.3360905 44.2743747,38.5678076 43.5504594,38.149855 L41.7542702,37.1128246 L41.1691253,38.261236 C40.7396578,39.1041134 39.7082185,39.4392484 38.8653411,39.0097809 C38.0224636,38.5803134 37.6873287,37.548874 38.1167962,36.7059966 L38.7834476,35.3976194 L37.7815511,34.8191742 C37.7689559,34.8475789 37.7555252,34.8758044 37.7412498,34.9038215 L36.0305617,38.261236 L36.0305617,38.261236 C35.6010942,39.1041134 34.5696548,39.4392484 33.7267774,39.0097809 L33.7267774,39.0097809 C32.8839,38.5803134 32.548765,37.548874 32.9782325,36.7059966 L34.6889206,33.3485821 L34.6889206,33.3485821 C34.7309434,33.2661078 34.7787296,33.1884948 34.8315387,33.1159837 Z" id="path-5"></path>
        <filter x="-18.0%" y="-11.4%" width="136.0%" height="131.8%" filterUnits="objectBoundingBox" id="filter-6">
            <feOffset dx="0" dy="1" in="SourceAlpha" result="shadowOffsetOuter1"></feOffset>
            <feGaussianBlur stdDeviation="1" in="shadowOffsetOuter1" result="shadowBlurOuter1"></feGaussianBlur>
            <feComposite in="shadowBlurOuter1" in2="SourceAlpha" operator="out" result="shadowBlurOuter1"></feComposite>
            <feColorMatrix values="0 0 0 0 1   0 0 0 0 0.643137255   0 0 0 0 0.109803922  0 0 0 1 0" type="matrix" in="shadowBlurOuter1"></feColorMatrix>
        </filter>
    </defs>
    <g id="Page-1" stroke="none" stroke-width="1" fill="none" fill-rule="evenodd">
        <g id="Logo2" transform="translate(0.000000, -7.000000)">
            <g id="coinninja" transform="translate(0.000000, 61.000000)">
                <path d="M10.6722105,16.3821001 C11.403158,16.3821001 12.1340946,16.4445657 12.8650422,16.5694988 C13.5959898,16.694432 14.2983741,16.8647928 14.9722164,17.0805863 C15.6460587,17.2963799 16.2742074,17.5632785 16.8566812,17.8812901 C17.439155,18.1993017 17.9473844,18.5513807 18.3813845,18.9375376 L17.0108647,20.9818876 C16.0743381,20.2777191 15.1206943,19.7325645 14.1499045,19.3464076 C13.1791148,18.9602507 12.1341039,18.7671751 11.0148404,18.7671751 C10.1925244,18.7671751 9.43874604,18.897785 8.7534827,19.1590088 C8.06821936,19.4202326 7.47433337,19.8404559 6.97180692,20.4196913 C6.46928047,20.9989267 6.07525996,21.7428355 5.78973356,22.6514401 C5.50420717,23.5600446 5.36144612,24.6503537 5.36144612,25.9224 C5.36144612,27.1944464 5.50420717,28.2847555 5.78973356,29.19336 C6.07525996,30.1019646 6.48070135,30.8458734 7.00606991,31.4251088 C7.53143848,32.0043442 8.16529756,32.4245675 8.90766618,32.6857913 C9.6500348,32.9470151 10.466628,33.077625 11.3574704,33.077625 C12.4767338,33.077625 13.5217448,32.8845494 14.4925345,32.4983925 C15.4633242,32.1122356 16.4169681,31.567081 17.3534946,30.8629125 L18.7240145,32.9072625 C18.2900143,33.2934194 17.781785,33.6454984 17.1993112,33.96351 C16.6168373,34.2815216 15.9886887,34.5484202 15.3148464,34.7642138 C14.6410041,34.9800073 13.9386197,35.1503681 13.2076721,35.2753012 C12.4767246,35.4002344 11.745788,35.4627 11.0148404,35.4627 C9.39305051,35.4627 7.91404598,35.2525883 6.57778247,34.8323587 C5.24151895,34.4121292 4.10514096,33.7988303 3.16861439,32.9924438 C2.23208782,32.1860572 1.50686166,31.1922859 0.992914158,30.0111 C0.478966651,28.8299141 0.221996753,27.4670278 0.221996753,25.9224 C0.221996753,24.4004874 0.478966651,23.0432798 0.992914158,21.8507363 C1.50686166,20.6581929 2.22066694,19.6587429 3.13435139,18.8523563 C4.04803585,18.0459698 5.14444075,17.4326709 6.42359899,17.0124413 C7.70275722,16.5922117 9.11894689,16.3821001 10.6722105,16.3821001 Z M30.658958,33.2479875 C31.3899056,33.2479875 32.0751586,33.1116989 32.7147377,32.8391175 C33.3543169,32.5665361 33.9139402,32.1406342 34.3936245,31.5613988 C34.8733089,30.9821634 35.2559085,30.2268972 35.5414349,29.2955775 C35.8269613,28.3642579 35.9697223,27.2398766 35.9697223,25.9224 C35.9697223,24.6049235 35.8269613,23.4805422 35.5414349,22.5492226 C35.2559085,21.6179029 34.8733089,20.8626367 34.3936245,20.2834013 C33.9139402,19.7041659 33.3543169,19.2782639 32.7147377,19.0056826 C32.0751586,18.7331012 31.3899056,18.5968126 30.658958,18.5968126 C29.9280104,18.5968126 29.2427574,18.7331012 28.6031782,19.0056826 C27.9635991,19.2782639 27.4039758,19.7041659 26.9242915,20.2834013 C26.4446071,20.8626367 26.0620075,21.6179029 25.7764811,22.5492226 C25.4909547,23.4805422 25.3481937,24.6049235 25.3481937,25.9224 C25.3481937,27.2398766 25.4909547,28.3642579 25.7764811,29.2955775 C26.0620075,30.2268972 26.4446071,30.9821634 26.9242915,31.5613988 C27.4039758,32.1406342 27.9635991,32.5665361 28.6031782,32.8391175 C29.2427574,33.1116989 29.9280104,33.2479875 30.658958,33.2479875 Z M30.658958,16.3821001 C32.1893795,16.3821001 33.5998587,16.5922117 34.890438,17.0124413 C36.1810173,17.4326709 37.2831326,18.0459698 38.1968171,18.8523563 C39.1105015,19.6587429 39.8243068,20.6581929 40.3382543,21.8507363 C40.8522018,23.0432798 41.1091717,24.4004874 41.1091717,25.9224 C41.1091717,27.4670278 40.8522018,28.8299141 40.3382543,30.0111 C39.8243068,31.1922859 39.1105015,32.1860572 38.1968171,32.9924438 C37.2831326,33.7988303 36.1810173,34.4121292 34.890438,34.8323587 C33.5998587,35.2525883 32.1893795,35.4627 30.658958,35.4627 C29.1056944,35.4627 27.6895048,35.2525883 26.4103465,34.8323587 C25.1311883,34.4121292 24.0347834,33.7988303 23.1210989,32.9924438 C22.2074145,32.1860572 21.4936092,31.1922859 20.9796617,30.0111 C20.4657142,28.8299141 20.2087443,27.4670278 20.2087443,25.9224 C20.2087443,24.4004874 20.4657142,23.0432798 20.9796617,21.8507363 C21.4936092,20.6581929 22.2074145,19.6587429 23.1210989,18.8523563 C24.0347834,18.0459698 25.1311883,17.4326709 26.4103465,17.0124413 C27.6895048,16.5922117 29.1056944,16.3821001 30.658958,16.3821001 Z M49.9604456,34.78125 L45.1636262,34.78125 L45.1636262,17.4042751 L49.9604456,17.4042751 L49.9604456,34.78125 Z M50.1317606,12.8044876 C50.1317606,13.485941 49.8976325,14.0822038 49.4293692,14.5932939 C48.9611059,15.1043839 48.3386677,15.3599251 47.5620359,15.3599251 C46.7854041,15.3599251 46.1629659,15.1043839 45.6947026,14.5932939 C45.2264394,14.0822038 44.9923112,13.485941 44.9923112,12.8044876 C44.9923112,12.1230342 45.2264394,11.5267714 45.6947026,11.0156814 C46.1629659,10.5045913 46.7854041,10.2490501 47.5620359,10.2490501 C48.3158256,10.2490501 48.9325533,10.5045913 49.4122377,11.0156814 C49.891922,11.5267714 50.1317606,12.1230342 50.1317606,12.8044876 Z M73.7161227,34.78125 L68.9193033,34.78125 L68.9193033,24.0484126 C68.9193033,22.4129244 68.5081514,21.2374349 67.6858354,20.5219088 C66.8635194,19.8063828 65.6757474,19.4486251 64.1224839,19.4486251 L59.6682944,19.4486251 L59.6682944,34.78125 L54.871475,34.78125 L54.871475,17.0635501 L64.1224839,17.0635501 C67.3889058,17.0635501 69.8044228,17.6484555 71.3691075,18.8182838 C72.9337921,19.9881122 73.7161227,21.731471 73.7161227,24.0484126 L73.7161227,34.78125 Z" fill="#FFA41C"></path>
                <path d="M97.1291698,34.78125 L92.3323504,34.78125 L92.3323504,24.0484126 C92.3323504,22.4129244 91.9211985,21.2374349 91.0988825,20.5219088 C90.2765665,19.8063828 89.0887945,19.4486251 87.535531,19.4486251 L83.0813415,19.4486251 L83.0813415,34.78125 L78.2845221,34.78125 L78.2845221,17.0635501 L87.535531,17.0635501 C90.8019529,17.0635501 93.2174699,17.6484555 94.7821546,18.8182838 C96.3468392,19.9881122 97.1291698,21.731471 97.1291698,24.0484126 L97.1291698,34.78125 Z" id="Path" fill="#FFFFFF"></path>
                <polygon id="Path" fill="#FFFFFF" points="106.665704 34.78125 101.868884 34.78125 101.868884 17.4042751 106.665704 17.4042751"></polygon>
                <path d="M106.837019,12.8044876 C106.837019,13.485941 106.60289,14.0822038 106.134627,14.5932939 C105.666364,15.1043839 105.043926,15.3599251 104.267294,15.3599251 C103.490662,15.3599251 102.868224,15.1043839 102.399961,14.5932939 C101.931697,14.0822038 101.697569,13.485941 101.697569,12.8044876 C101.697569,12.1230342 101.931697,11.5267714 102.399961,11.0156814 C102.868224,10.5045913 103.490662,10.2490501 104.267294,10.2490501 C105.021084,10.2490501 105.637811,10.5045913 106.117496,11.0156814 C106.59718,11.5267714 106.837019,12.1230342 106.837019,12.8044876 Z" id="Path" fill="#FFFFFF"></path>
                <path d="M130.421381,34.78125 L125.624561,34.78125 L125.624561,24.0484126 C125.624561,22.4129244 125.213409,21.2374349 124.391093,20.5219088 C123.568777,19.8063828 122.381005,19.4486251 120.827742,19.4486251 L116.373552,19.4486251 L116.373552,34.78125 L111.576733,34.78125 L111.576733,17.0635501 L120.827742,17.0635501 C124.094164,17.0635501 126.509681,17.6484555 128.074365,18.8182838 C129.63905,19.9881122 130.421381,21.731471 130.421381,24.0484126 L130.421381,34.78125 Z" id="Path" fill="#FFFFFF"></path>
                <path d="M140.300544,34.78125 C140.300544,35.7579999 140.140652,36.6609121 139.820863,37.4900137 C139.501073,38.3191154 139.038527,39.0403094 138.433211,39.6536175 C137.827895,40.2669255 137.079827,40.7439358 136.188985,41.0846625 C135.298143,41.4253892 134.270263,41.59575 133.105315,41.59575 C132.51142,41.59575 131.877561,41.538963 131.203719,41.4253875 C130.529877,41.3118119 129.850334,41.0846642 129.165071,40.7439375 L129.850331,38.529225 C130.192962,38.7109459 130.598404,38.8699493 131.066667,39.00624 C131.53493,39.1425307 131.986055,39.210675 132.420055,39.210675 C132.854056,39.210675 133.259497,39.1311733 133.636392,38.9721675 C134.013287,38.8131617 134.338782,38.5576205 134.612887,38.2055362 C134.886992,37.853452 135.103989,37.3991565 135.263884,36.8426362 C135.423779,36.286116 135.503725,35.5989941 135.503725,34.78125 L135.503725,17.4042751 L140.300544,17.4042751 L140.300544,34.78125 Z" id="Path" fill="#FFFFFF"></path>
                <path d="M157.888882,23.5373251 C157.888882,21.9018369 157.460599,20.6979539 156.60402,19.9256401 C155.747441,19.1533262 154.633905,18.7671751 153.263378,18.7671751 C152.235483,18.7671751 151.230445,18.9204998 150.248234,19.2271538 C149.266023,19.5338079 148.386615,19.9483525 147.609984,20.4708001 L146.410779,18.4264501 C146.913305,18.0857234 147.467218,17.7904313 148.072534,17.5405651 C148.67785,17.2906988 149.300288,17.0805872 149.939867,16.9102238 C150.579446,16.7398605 151.213305,16.6092506 151.841464,16.5183901 C152.469622,16.4275296 153.057797,16.3821001 153.606008,16.3821001 C155.067903,16.3821001 156.358463,16.5524609 157.477726,16.8931876 C158.59699,17.2339143 159.544923,17.7222819 160.321555,18.3583051 C161.098187,18.9943283 161.686362,19.7495945 162.086099,20.6241263 C162.485836,21.4986582 162.685702,22.4697147 162.685702,23.5373251 L162.685702,34.78125 L153.092063,34.78125 C149.985536,34.78125 147.695648,34.3155972 146.222332,33.3842775 C144.749016,32.4529579 144.012369,31.0446419 144.012369,29.1592875 C144.012369,27.2739331 144.749016,25.8656172 146.222332,24.9342976 C147.695648,24.0029779 149.985536,23.5373251 153.092063,23.5373251 L157.888882,23.5373251 Z M149.151818,29.1592875 C149.151818,31.3172233 150.46522,32.396175 153.092063,32.396175 L157.888882,32.396175 L157.888882,25.9224 L153.092063,25.9224 C150.46522,25.9224 149.151818,27.0013518 149.151818,29.1592875 Z" id="Combined-Shape" fill="#FFFFFF"></path>
                <path d="M144.08442,8.30349447 L146.137118,7.33897431 C146.29061,7.26685175 146.388605,7.11253195 146.388605,6.94294015 L146.388605,6.94294015 L146.388605,0.448936982 C146.388605,0.338170888 146.346598,0.231526464 146.271057,0.150516181 C146.106243,-0.0262295109 145.829355,-0.0359026608 145.652609,0.128910596 L145.652609,0.128910596 L134.777426,10.2698903 L134.777426,10.2698903 C134.749036,10.2963635 134.724295,10.3264968 134.703854,10.3594967 C134.676238,10.4040795 134.6576,10.4516885 134.647443,10.5002114 C134.609806,10.5970354 134.606309,10.7075378 134.645704,10.8124422 L134.645704,10.8124422 L135.328094,12.6295942 C135.387844,12.7887034 135.534321,12.8988216 135.703766,12.9120163 L135.703766,12.9120163 L146.841023,13.7792759 C147.013551,13.7927107 147.177789,13.7032072 147.260016,13.5509411 L150.418822,7.70152327 C150.468081,7.61030776 150.483355,7.50456649 150.461923,7.40314005 C150.411961,7.16669498 150.179782,7.0155204 149.943337,7.06548217 L149.943337,7.06548217 L144.08442,8.30349447 Z" id="Combined-Shape-Copy" fill="#FFA41C"></path>
            </g>
            <g id="Coin-Icon" transform="translate(48.000000, 0.000000)">
                <g id="Combined-Shape-Copy-18" transform="translate(35.000000, 40.000000) rotate(-61.000000) translate(-35.000000, -40.000000) ">
                    <use fill="url(#radialGradient-1)" fill-rule="evenodd" xlink:href="#path-3"></use>
                    <use fill="black" fill-opacity="1" filter="url(#filter-4)" xlink:href="#path-3"></use>
                    <path stroke="url(#linearGradient-2)" stroke-width="1.20955682" d="M32.3081727,29.8846461 L32.1312634,30.1737891 L31.7922914,30.1737927 L9.75115938,30.1737927 C8.48192179,30.1737927 7.45300142,31.2027131 7.45300142,32.4719507 L7.45300142,32.4880234 C7.45300142,33.757261 8.48192179,34.7861814 9.75115938,34.7861814 L29.3935768,34.7861814 L30.1577794,34.7861814 L29.9821711,35.5299336 C29.6389981,36.9833708 29.4640277,38.4801346 29.4640277,40 C29.4640277,41.6326219 29.665927,43.2384 30.061141,44.792103 L30.2529016,45.5459706 L24.4021424,45.5459706 C23.1329048,45.5459706 22.1039845,46.574891 22.1039845,47.8441286 L22.1039845,47.8602013 C22.1039845,49.1294389 23.1329048,50.1583593 24.4021424,50.1583593 L32.3312605,50.1583593 L32.5096226,50.4375155 C36.0982656,56.0541344 42.3273345,59.5294498 49.1583068,59.5294498 C60.0362556,59.5294498 68.8525859,50.7847085 68.8525859,40 C68.8525859,29.2152915 60.0362556,20.4705502 49.1583068,20.4705502 C42.1915034,20.4705502 35.8557912,24.0863676 32.3081727,29.8846461 Z M28.7122641,44.3364138 L29.4750272,44.3364138 L28.8889135,45.0902814 C28.825306,44.8402218 28.7664121,44.5889007 28.712263,44.3364138 Z M3.44557203,37.6550853 C2.17633444,37.6550853 1.14741407,38.6840056 1.14741407,39.9532432 L1.14741407,39.969316 C1.14741407,41.2385536 2.17633444,42.267474 3.44557203,42.267474 L13.2919846,42.267474 C14.5612222,42.267474 15.5901426,41.2385536 15.5901426,39.969316 L15.5901426,39.9532432 C15.5901426,38.6840056 14.5612222,37.6550853 13.2919846,37.6550853 L3.44557203,37.6550853 Z M15.9933563,46.3946353 C14.7241187,46.3946353 13.6951983,47.4235557 13.6951983,48.6927933 L13.6951983,48.708866 C13.6951983,49.9781036 14.7241187,51.007024 15.9933563,51.007024 L16.0570906,51.007024 C17.3263281,51.007024 18.3552485,49.9781036 18.3552485,48.708866 L18.3552485,48.6927933 C18.3552485,47.4235557 17.3263281,46.3946353 16.0570906,46.3946353 L15.9933563,46.3946353 Z"></path>
                </g>
                <g id="Combined-Shape-Copy">
                    <use fill="black" fill-opacity="1" filter="url(#filter-6)" xlink:href="#path-5"></use>
                    <use fill-opacity="0.709999979" fill="#FFFFFF" fill-rule="evenodd" xlink:href="#path-5"></use>
                </g>
            </g>
        </g>
    </g>
</svg>