<?xml version="1.0" encoding="UTF-8" standalone="no"?>
<svg width="59px" height="59px" viewBox="0 0 59 59" version="1.1" xmlns="http://www.w3.org/2000/svg" xmlns:xlink="http://www.w3.org/1999/xlink">
    <!-- Generator: Sketch 46.2 (44496) - http://www.bohemiancoding.com/sketch -->
    <title>Shape-2</title>
    <desc>Created with Sketch.</desc>
    <defs></defs>
    <g id="Page-1" stroke="none" stroke-width="1" fill="none" fill-rule="evenodd">
        <g id="CN-about-us" transform="translate(-452.000000, -1899.000000)" fill="#2CD1FF">
            <g id="Meet-Tom-+-Larry" transform="translate(0.000000, 1898.000000)">
                <path d="M481.5,1 C465.234139,1 452,14.2341778 452,30.4999856 C452,46.765851 465.234139,60 481.5,60 C497.765486,60 511,46.7658222 511,30.4999856 C510.999971,14.2341778 497.765457,1 481.5,1 Z M481.140244,54.9634146 C467.451924,54.9634146 456.317073,43.828205 456.317073,30.1402582 C456.317073,16.4523114 467.451924,5.31707317 481.140244,5.31707317 C494.828163,5.31707317 505.963415,16.4523114 505.963415,30.1402582 C505.963386,43.828205 494.828163,54.9634146 481.140244,54.9634146 Z M474.304878,26.902439 C476.293264,26.902439 477.902439,24.4870254 477.902439,21.5060976 C477.902439,18.5251697 476.293264,16.1097561 474.304878,16.1097561 C472.316121,16.1097561 470.707317,18.5251697 470.707317,21.5060976 C470.707317,24.4870254 472.316121,26.902439 474.304878,26.902439 Z M488.695136,26.902439 C490.683514,26.902439 492.292683,24.4870254 492.292683,21.5060976 C492.292683,18.5251697 490.683514,16.1097561 488.695136,16.1097561 C486.706387,16.1097561 485.097561,18.5251697 485.097561,21.5060976 C485.097561,24.4870254 486.706387,26.902439 488.695136,26.902439 Z M496.503849,33.3780488 L466.496916,33.3780488 C466.032061,33.3780488 465.591905,33.5830872 465.298929,33.9352661 C465.005982,34.2874169 464.888954,34.749021 464.983102,35.1949809 C465.37891,37.0687961 466.085093,38.8405713 467.082463,40.4592301 C470.191861,45.4861094 475.581646,48.4878049 481.496963,48.4878049 C487.413752,48.4878049 492.803508,45.4861094 495.914349,40.4574543 C496.906612,38.8455323 497.614641,37.0776471 498.015874,35.1985326 C498.111465,34.7543203 497.996254,34.2891927 497.703307,33.9370137 C497.408889,33.5831154 496.968704,33.3780488 496.503849,33.3780488 Z" id="Shape-2"></path>
            </g>
        </g>
    </g>
</svg>