<?xml version="1.0" encoding="UTF-8" standalone="no"?>
<svg width="60px" height="60px" viewBox="0 0 60 60" version="1.1" xmlns="http://www.w3.org/2000/svg" xmlns:xlink="http://www.w3.org/1999/xlink">
    <!-- Generator: Sketch 46.2 (44496) - http://www.bohemiancoding.com/sketch -->
    <title>Shape-1</title>
    <desc>Created with Sketch.</desc>
    <defs></defs>
    <g id="Page-1" stroke="none" stroke-width="1" fill="none" fill-rule="evenodd">
        <g id="CN-about-us" transform="translate(-530.000000, -1898.000000)" fill="#242536">
            <g id="Meet-Tom-+-Larry" transform="translate(0.000000, 1898.000000)">
                <path d="M552.665177,26.1665494 L552.665762,26.1665494 C554.69109,26.1665494 556.333658,23.703359 556.333658,20.6664378 C556.333658,17.6287257 554.691647,15.166502 552.665177,15.166502 C550.638823,15.166502 548.999918,17.6297217 548.999918,20.6664378 C548.999918,23.7045308 550.638267,26.1665494 552.665177,26.1665494 Z M563.999186,22.6656635 L563.999186,22.6650776 L570.832577,22.6650776 C571.93765,22.6650776 572.833737,21.7691963 572.833737,20.6652075 C572.833737,19.5606621 571.938236,18.6653959 570.833807,18.6653959 L563.999186,18.6720751 C562.973647,18.7566773 562.167552,19.6169367 562.167552,20.6652075 C562.167523,21.7139177 562.973647,22.5734154 563.999186,22.6656635 Z M575.262624,33.1665343 L544.737669,33.1665343 C544.265794,33.1665343 543.818527,33.3787429 543.520398,33.7441906 C543.220452,34.108818 543.103509,34.587547 543.199624,35.0515118 C543.598731,36.9931153 544.320194,38.8308995 545.332931,40.5087656 C548.495995,45.7215284 553.979968,48.8331796 559.995547,48.8331796 C566.014788,48.8331796 571.497062,45.7209425 574.661532,40.5060119 C575.670373,38.8366119 576.3921,37.0019915 576.800376,35.0542654 C576.897165,34.593611 576.779255,34.108818 576.482122,33.7441613 C576.181561,33.3787429 575.733767,33.1665343 575.262624,33.1665343 Z M559.99836,0 C543.45844,0 530.000644,13.4597224 530.000644,30.0013915 L530,30.0019481 C530,46.5398968 543.45844,60 559.997803,60 C576.54156,60 590,46.5398968 590,30.0019481 C590,13.4585506 576.54156,0 559.99836,0 Z M560.081907,55.4992083 L560.081907,55.4997942 C546.065526,55.4997942 534.667303,44.0971539 534.667303,30.0828006 C534.667303,16.0653128 546.065526,4.66642222 560.081907,4.66642222 C574.098201,4.66642222 585.500495,16.0653128 585.500495,30.082244 C585.500495,44.0971539 574.098201,55.4992083 560.081907,55.4992083 Z" id="Shape-1"></path>
            </g>
        </g>
    </g>
</svg>