<svg xmlns="http://www.w3.org/2000/svg" width="19" height="19" viewBox="0 0 19 19">
    <path fill="#9B9B9B" fill-rule="evenodd" d="M9.5 19a9.5 9.5 0 1 1 0-19 9.5 9.5 0 0 1 0 19zm.926-8.989l2.949-2.948a.428.428 0 0 0 0-.606l-.332-.332a.428.428 0 0 0-.606 0L9.49 9.075l-2.94-2.942a.428.428 0 0 0-.607 0l-.309.31a.428.428 0 0 0 0 .605l2.94 2.941-2.948 2.948a.428.428 0 0 0 0 .606l.332.332a.428.428 0 0 0 .606 0l2.948-2.949 2.934 2.934a.428.428 0 0 0 .606 0l.309-.31a.428.428 0 0 0 0-.605l-2.934-2.934z"/>
</svg>
