<svg xmlns="http://www.w3.org/2000/svg" xmlns:xlink="http://www.w3.org/1999/xlink" width="922" height="63" viewBox="0 0 922 63">
    <defs>
        <radialGradient id="a" cx="67.113%" r="71.054%" fx="67.113%" fy="50%" gradientTransform="scale(-.58218 -1) rotate(-78.152 -.857 1.123)">
            <stop offset="0%" stop-color="#F6DA7D"/>
            <stop offset="100%" stop-color="#FFA41C"/>
        </radialGradient>
        <linearGradient id="d" x1="50%" x2="50%" y1="0%" y2="100%">
            <stop offset="0%" stop-color="#FAD961"/>
            <stop offset="100%" stop-color="#F76B1C"/>
        </linearGradient>
        <path id="b" d="M17.259 16.858a11.04 11.04 0 0 1 9.427-5.248c6.086 0 11.02 4.876 11.02 10.89s-4.934 10.89-11.02 10.89c-3.92 0-7.361-2.022-9.315-5.069h-4.126a1.574 1.574 0 1 1 0-3.148h2.756a10.79 10.79 0 0 1-.335-2.673c0-.858.1-1.692.29-2.493H5.293a1.574 1.574 0 0 1 0-3.149H17.26zm-15.39 4.047h5.348a1.574 1.574 0 0 1 0 3.149H1.87a1.574 1.574 0 0 1 0-3.15zm6.812 4.727h.037a1.574 1.574 0 1 1 0 3.148h-.037a1.574 1.574 0 0 1 0-3.148z"/>
        <filter id="c" width="105.3%" height="109.2%" x="-2.7%" y="-4.6%" filterUnits="objectBoundingBox">
            <feGaussianBlur in="SourceAlpha" result="shadowBlurInner1" stdDeviation=".5"/>
            <feOffset dy="1" in="shadowBlurInner1" result="shadowOffsetInner1"/>
            <feComposite in="shadowOffsetInner1" in2="SourceAlpha" k2="-1" k3="1" operator="arithmetic" result="shadowInnerInner1"/>
            <feColorMatrix in="shadowInnerInner1" values="0 0 0 0 1 0 0 0 0 1 0 0 0 0 1 0 0 0 1 0"/>
        </filter>
        <path id="f" d="M18.91 18.77l-1.085-.627a.81.81 0 0 1-.314-1.1l.216-.374.735-1.273.234-.406 1.91-3.308a.81.81 0 0 1 1.11-.278l.71.41.586-1.15a.93.93 0 0 1 1.657.845l-.63 1.236.755.436a.93.93 0 0 1 .085-.249l.923-1.81a.93.93 0 0 1 1.657.844l-.923 1.81a.927.927 0 0 1-.221.283l1.225.707a.81.81 0 0 1 .313 1.1l-.486.843a.81.81 0 0 1-1.11.278l-3.518-2.031a.81.81 0 0 0-1.11.278l-.52.902a.81.81 0 0 0 .314 1.1l3.518 2.03a.827.827 0 0 1 .417.677.774.774 0 0 1-.103.424l-.497.86a.81.81 0 0 1-1.11.278l-.98-.566-.316.62a.93.93 0 1 1-1.657-.845l.36-.706-.544-.314a.944.944 0 0 1-.026.054l-.922 1.81a.93.93 0 1 1-1.657-.844l.922-1.81a.936.936 0 0 1 .083-.134z"/>
        <filter id="e" width="166.4%" height="158.8%" x="-33.2%" y="-21%" filterUnits="objectBoundingBox">
            <feOffset dy="1" in="SourceAlpha" result="shadowOffsetOuter1"/>
            <feGaussianBlur in="shadowOffsetOuter1" result="shadowBlurOuter1" stdDeviation="1"/>
            <feComposite in="shadowBlurOuter1" in2="SourceAlpha" operator="out" result="shadowBlurOuter1"/>
            <feColorMatrix in="shadowBlurOuter1" values="0 0 0 0 1 0 0 0 0 0.643137255 0 0 0 0 0.109803922 0 0 0 1 0"/>
        </filter>
    </defs>
    <g fill="none" fill-rule="evenodd">
        <path fill="#242536" d="M0 0h1046v63H0z" style="mix-blend-mode:darken"/>
        <path fill="#FFA41C" d="M67.762 32.581c.394 0 .789.033 1.184.098.394.066.773.155 1.137.268.364.113.703.253 1.018.42.314.166.588.35.823.553l-.74 1.07a6.748 6.748 0 0 0-1.545-.856 4.66 4.66 0 0 0-1.692-.304c-.444 0-.851.069-1.221.206-.37.137-.69.357-.962.66-.271.303-.484.693-.638 1.169-.154.476-.231 1.047-.231 1.713 0 .667.077 1.238.23 1.714.155.476.374.865.657 1.169a2.48 2.48 0 0 0 1.027.66c.4.137.842.205 1.323.205a4.66 4.66 0 0 0 1.692-.303 6.748 6.748 0 0 0 1.545-.857l.74 1.071a4.42 4.42 0 0 1-.823.553 5.921 5.921 0 0 1-1.018.42 8.536 8.536 0 0 1-1.137.268c-.395.065-.79.098-1.184.098-.876 0-1.674-.11-2.396-.33-.721-.22-1.335-.542-1.84-.964a4.294 4.294 0 0 1-1.175-1.562c-.277-.619-.416-1.333-.416-2.142 0-.797.139-1.508.416-2.132a4.37 4.37 0 0 1 1.156-1.571 5.052 5.052 0 0 1 1.776-.964c.69-.22 1.455-.33 2.294-.33zm10.79 8.835c.395 0 .765-.072 1.11-.215.345-.142.647-.365.906-.669.26-.303.466-.699.62-1.187.154-.488.231-1.076.231-1.767 0-.69-.077-1.279-.231-1.767-.154-.487-.36-.883-.62-1.186a2.378 2.378 0 0 0-.906-.67 2.875 2.875 0 0 0-1.11-.214c-.395 0-.764.072-1.11.214a2.378 2.378 0 0 0-.906.67c-.26.303-.466.699-.62 1.186-.154.488-.231 1.077-.231 1.767s.077 1.28.231 1.767c.154.488.36.884.62 1.187.259.304.56.527.906.67.346.142.715.214 1.11.214zm0-8.835c.826 0 1.588.11 2.285.33.696.22 1.291.542 1.785.964a4.37 4.37 0 0 1 1.156 1.57c.277.625.416 1.336.416 2.133 0 .81-.139 1.523-.416 2.142a4.39 4.39 0 0 1-1.156 1.562c-.494.422-1.089.743-1.785.964a7.55 7.55 0 0 1-2.285.33c-.838 0-1.603-.11-2.294-.33a5.052 5.052 0 0 1-1.775-.964 4.39 4.39 0 0 1-1.157-1.562c-.277-.619-.416-1.333-.416-2.142 0-.797.139-1.508.416-2.132a4.37 4.37 0 0 1 1.157-1.571 5.052 5.052 0 0 1 1.775-.964c.69-.22 1.456-.33 2.294-.33zm10.42 9.638h-2.59v-9.102h2.59v9.102zm.093-11.512c0 .357-.126.67-.38.937-.252.268-.588.402-1.007.402-.42 0-.756-.134-1.008-.402a1.322 1.322 0 0 1-.38-.937c0-.357.127-.67.38-.937.252-.268.588-.401 1.008-.401.407 0 .74.133.999.401s.388.58.388.937zm12.733 11.512h-2.59v-5.622c0-.857-.222-1.473-.666-1.847-.444-.375-1.085-.563-1.924-.563h-2.404v8.032h-2.59v-9.28h4.994c1.764 0 3.068.305 3.913.918.844.613 1.267 1.526 1.267 2.74v5.622z"/>
        <path fill="#FFF" d="M114.438 42.219h-2.59v-5.622c0-.857-.222-1.473-.666-1.847-.444-.375-1.085-.563-1.924-.563h-2.404v8.032h-2.59v-9.28h4.994c1.764 0 3.068.305 3.913.918.844.613 1.267 1.526 1.267 2.74v5.622zM119.586 42.219h-2.59v-9.102h2.59zM119.679 30.707c0 .357-.127.67-.38.937-.252.268-.588.402-1.007.402-.42 0-.756-.134-1.009-.402a1.322 1.322 0 0 1-.379-.937c0-.357.127-.67.38-.937.252-.268.588-.401 1.008-.401.406 0 .74.133.998.401.26.268.389.58.389.937zM132.412 42.219h-2.59v-5.622c0-.857-.222-1.473-.666-1.847-.444-.375-1.085-.563-1.924-.563h-2.405v8.032h-2.59v-9.28h4.995c1.764 0 3.068.305 3.912.918.845.613 1.268 1.526 1.268 2.74v5.622zM137.745 42.219c0 .511-.086.984-.259 1.419a3.258 3.258 0 0 1-.75 1.133c-.326.321-.73.571-1.21.75-.482.178-1.037.267-1.665.267-.321 0-.663-.03-1.027-.089a4.028 4.028 0 0 1-1.1-.357l.37-1.16c.184.095.403.178.656.25.253.071.496.107.73.107.235 0 .454-.042.657-.125.204-.083.38-.217.527-.402.148-.184.266-.422.352-.713.086-.292.13-.652.13-1.08v-9.102h2.59v9.102zM147.24 36.33c0-.858-.23-1.488-.693-1.893-.462-.404-1.064-.607-1.804-.607-.555 0-1.097.08-1.627.241-.53.161-1.005.378-1.425.652l-.647-1.071c.271-.179.57-.333.897-.464.327-.131.663-.241 1.008-.33.345-.09.688-.158 1.027-.206.339-.047.656-.07.952-.07.79 0 1.486.088 2.09.267.605.178 1.117.434 1.536.767.42.333.737.729.953 1.187.215.458.323.967.323 1.526v5.89h-5.18c-1.676 0-2.912-.244-3.708-.732-.795-.488-1.193-1.226-1.193-2.213 0-.988.398-1.725 1.193-2.213.796-.488 2.032-.732 3.709-.732h2.59zm-4.716 2.944c0 1.13.709 1.695 2.127 1.695h2.59v-3.39h-2.59c-1.418 0-2.127.565-2.127 1.695z"/>
        <path fill="#FFA41C" d="M139.788 28.35l2.884-.592a.365.365 0 0 1 .392.535l-1.521 2.732a.365.365 0 0 1-.346.187l-5.854-.443a.365.365 0 0 1-.313-.232l-.279-.72a.364.364 0 0 1 .032-.328.363.363 0 0 1 .119-.235l5.52-4.995a.365.365 0 0 1 .61.27v3.019a.365.365 0 0 1-.213.332l-1.031.47z"/>
        <g>
            <g transform="rotate(-61 42.337 4.233)">
                <use fill="url(#a)" xlink:href="#b"/>
                <use fill="#000" filter="url(#c)" xlink:href="#b"/>
                <path stroke="url(#d)" stroke-width="1.008" d="M17.688 17.122l-.147.24H5.292a1.07 1.07 0 1 0 0 2.141h11.302l-.147.62a10.295 10.295 0 0 0-.277 2.377c0 .868.108 1.722.319 2.548l.16.629h-3.404a1.07 1.07 0 1 0 0 2.14h4.402l.149.232a10.537 10.537 0 0 0 8.89 4.837c5.809 0 10.515-4.651 10.515-10.386 0-5.735-4.706-10.386-10.515-10.386-3.72 0-7.104 1.924-8.998 5.008zM1.87 21.409a1.07 1.07 0 1 0 0 2.14h5.348a1.07 1.07 0 1 0 0-2.14H1.87zm6.812 4.727a1.07 1.07 0 1 0 0 2.14h.037a1.07 1.07 0 0 0 0-2.14h-.037z"/>
            </g>
            <g transform="translate(28 11)">
                <use fill="#000" filter="url(#e)" xlink:href="#f"/>
                <use fill="#FFF" fill-opacity=".71" xlink:href="#f"/>
            </g>
        </g>
    </g>
</svg>
