<?xml version="1.0" encoding="UTF-8"?>
<svg width="9px" height="14px" viewBox="0 0 9 14" version="1.1" xmlns="http://www.w3.org/2000/svg" xmlns:xlink="http://www.w3.org/1999/xlink">
    <!-- Generator: Sketch 47.1 (45422) - http://www.bohemiancoding.com/sketch -->
    <title>Path</title>
    <desc>Created with Sketch.</desc>
    <defs></defs>
    <g id="Page-1" stroke="none" stroke-width="1" fill="none" fill-rule="evenodd">
        <g id="CN-homepage-top-nav" transform="translate(-729.000000, -363.000000)" fill="#99999C">
            <g id="Search-and-Calc" transform="translate(695.000000, 197.000000)">
                <g id="Calculator" transform="translate(13.000000, 34.000000)">
                    <path d="M23.9150001,136.8775 C23.9150001,136.28625 24.4787501,135.97 25.3450001,135.97 C26.0875001,135.97 27.2012501,136.28625 28.2325002,136.905 L28.9750002,135.31 C28.2050002,134.80125 27.1737501,134.43 26.1150001,134.32 L26.1150001,132.46375 L24.7537501,132.4775 L24.7537501,134.33375 C23.0075,134.55375 21.89375,135.57125 21.89375,137.0425 C21.89375,140.46625 27.0637501,139.325 27.0637501,141.3325 C27.0637501,142.00625 26.4450001,142.39125 25.4137501,142.39125 C24.3825001,142.39125 23.07625,141.855 22.08625,140.975 L21.31625,142.52875 C22.21,143.32625 23.4475001,143.89 24.7537501,144.04125 L24.7537501,145.99375 L26.1150001,145.99375 L26.1150001,144.0275 C27.8475001,143.8075 29.0712502,142.80375 29.0712502,141.2225 C29.0850002,137.77125 23.9150001,138.83 23.9150001,136.8775 Z" id="Path"></path>
                </g>
            </g>
        </g>
    </g>
</svg>