<svg xmlns="http://www.w3.org/2000/svg" width="85" height="21" viewBox="0 0 85 21">
    <g fill="#9B9B9B" fill-rule="nonzero">
        <path d="M18.028.013c-.551 0-1.101.046-1.645.135a10.63 10.63 0 0 0-.85-.11C15.17 0 14.868 0 14.662 0c-.492 0-.983.036-1.47.107a.315.315 0 0 0-.155.137.291.291 0 0 0-.029.08l-.276 1.294c3.808.917 6.59 4.217 6.878 8.159.287 3.941-1.988 7.617-5.623 9.085a1.166 1.166 0 0 1-1.194-.19 1.192 1.192 0 0 1-.396-1.151l.909-4.367 1.166 1.81 1.422-.937-1.92-2.984a1.496 1.496 0 0 0-2.081-.442l-2.946 1.946.928 1.436 1.772-1.168-.923 4.434a2.753 2.753 0 0 0 1.515 3.067c1.153.452 2.498.565 4.069.237a10.2 10.2 0 0 0 9.97-4.049c2.3-3.142 2.65-7.324.906-10.81C25.439 2.205 21.897.008 18.028.012zM21.31 10.44c0-3.345-1.646-6.463-4.26-8.478 3.644 1.059 6.179 4.394 6.248 8.222.07 3.828-2.343 7.254-5.948 8.446 2.416-1.997 3.955-4.97 3.96-8.188v-.002zm-.49 8.169a10.376 10.376 0 0 0 4.085-8.227 10.377 10.377 0 0 0-4.025-8.257c3.476 1.228 5.799 4.545 5.785 8.263-.013 3.718-2.36 7.018-5.845 8.22z"/>
        <path d="M8 7.728l-1.166-1.81-1.422.943 1.922 2.975c.455.702 1.387.9 2.082.441l2.948-1.95-.928-1.435L9.664 8.06l.916-4.427A2.78 2.78 0 0 0 9.655.95 2.718 2.718 0 0 0 6.874.507C2.844 2.138 0 6.067 0 10.442c0 4.825 3.429 9.182 8.236 10.428l.334-1.606c-3.808-.916-6.59-4.217-6.878-8.158C1.405 7.164 3.68 3.489 7.315 2.02a1.166 1.166 0 0 1 1.194.19c.332.28.485.723.396 1.152L8 7.728zM84.258 5.793a7.437 7.437 0 0 0-1.614-2.263 7.78 7.78 0 0 0-2.405-1.56 7.626 7.626 0 0 0-2.971-.585h-2.13a7.633 7.633 0 0 0-2.972.585 7.78 7.78 0 0 0-2.409 1.56 7.42 7.42 0 0 0-1.614 2.263 6.387 6.387 0 0 0-.595 2.681v11.009h3.863V8.87a3.358 3.358 0 0 1 .324-1.5c.207-.427.498-.808.854-1.12a3.845 3.845 0 0 1 1.203-.704 3.89 3.89 0 0 1 1.345-.254h2.132a3.9 3.9 0 0 1 1.338.247c.44.159.848.397 1.203.704.357.312.647.693.854 1.12.224.47.336.986.326 1.507v10.62h3.863V8.475a6.387 6.387 0 0 0-.595-2.683zm-30.55-3.159a7.38 7.38 0 0 0-2.244 1.63A7.89 7.89 0 0 0 49.92 6.69a7.836 7.836 0 0 0-.58 3v2.145a7.89 7.89 0 0 0 2.127 5.427c.64.681 1.4 1.234 2.244 1.63.83.394 1.736.599 2.654.6h8.645V15.59h-8.262a3.275 3.275 0 0 1-1.486-.328 3.507 3.507 0 0 1-1.105-.862 3.89 3.89 0 0 1-.696-1.214 3.984 3.984 0 0 1-.245-1.349V9.684a3.993 3.993 0 0 1 .941-2.564c.309-.36.686-.653 1.11-.862a3.279 3.279 0 0 1 1.487-.327h8.261V2.033h-8.652a6.227 6.227 0 0 0-2.654.601zm-17.42 0a7.376 7.376 0 0 0-2.243 1.63 7.88 7.88 0 0 0-1.546 2.427 7.85 7.85 0 0 0-.58 2.993v2.152a7.85 7.85 0 0 0 .58 3.009 7.88 7.88 0 0 0 1.546 2.428c.639.68 1.4 1.234 2.243 1.629.83.394 1.737.599 2.654.6h8.645V15.59h-8.26a3.275 3.275 0 0 1-1.49-.328 3.506 3.506 0 0 1-1.11-.862 3.9 3.9 0 0 1-.697-1.214 3.995 3.995 0 0 1-.244-1.349V9.684c.004-.464.089-.923.25-1.356.157-.445.393-.856.697-1.215a3.506 3.506 0 0 1 1.105-.855 3.279 3.279 0 0 1 1.486-.327h8.262V2.033h-8.644a6.227 6.227 0 0 0-2.654.601z"/>
    </g>
</svg>
