<svg xmlns="http://www.w3.org/2000/svg" xmlns:xlink="http://www.w3.org/1999/xlink" width="66" height="23" viewBox="0 0 66 23">
    <defs>
        <path id="a" d="M.01.043h15.939v8.35H.009z"/>
    </defs>
    <g fill="none" fill-rule="evenodd">
        <path fill="#9B9B9B" d="M20.22 13.679c0-.532.323-.863.837-.863s.838.33.838.863v.826h.038c.38-.753 1.314-1.689 2.284-1.689.59 0 .933.367.933.826 0 .46-.342.753-1.047.881-.99.165-2.208.882-2.208 2.772v4.645c0 .533-.324.863-.838.863s-.837-.33-.837-.863V13.68"/>
        <path fill="#9B9B9B" d="M21.057 13.013c-.402 0-.633.243-.633.666v8.261c0 .424.23.666.633.666s.634-.242.634-.666v-4.645c0-2.383 1.82-2.873 2.377-2.966.787-.143.878-.46.878-.687 0-.382-.286-.629-.729-.629-.898 0-1.77.923-2.1 1.578l-.056.11h-.332l-.038-.196v-.826c0-.423-.231-.666-.634-.666zm0 9.987c-.633 0-1.042-.416-1.042-1.06V13.68c0-.644.41-1.06 1.042-1.06.633 0 1.042.416 1.042 1.06v.19c.519-.672 1.32-1.25 2.118-1.25.67 0 1.138.42 1.138 1.023 0 .39-.211.892-1.214 1.075-.616.103-2.042.559-2.042 2.578v4.645c0 .644-.409 1.06-1.042 1.06zM32.841 17.222c0-1.395-.838-3.011-2.685-3.011-2.075-.073-2.817 1.524-2.874 3.01h5.559zm-5.56 1.212c0 1.67 1.105 2.974 2.99 2.974 2.227 0 2.798-1.322 3.427-1.322.304 0 .609.257.609.716 0 .79-2.075 2.001-4.055 2.001-3.237 0-4.646-2.405-4.646-4.994 0-2.643 1.714-4.993 4.55-4.993 2.761 0 4.36 2.405 4.36 4.755 0 .569-.21.863-.932.863h-6.302z"/>
        <path fill="#9B9B9B" d="M27.499 17.025h5.131c-.072-1.12-.757-2.617-2.474-2.617a4.323 4.323 0 0 0-.136-.002c-2.055 0-2.449 1.802-2.521 2.619zm5.546.394H27.07l.009-.205c.06-1.583.898-3.272 3.086-3.2 1.889 0 2.881 1.614 2.881 3.208v.197zm-2.889-4.406c-2.853 0-4.346 2.413-4.346 4.796 0 2.32 1.167 4.797 4.442 4.797 1.91 0 3.85-1.157 3.85-1.804 0-.34-.203-.519-.404-.519-.148 0-.338.144-.58.325-.526.397-1.322.997-2.848.997-1.91 0-3.193-1.274-3.193-3.171v-.197h6.507c.619 0 .728-.215.728-.666 0-2.21-1.457-4.558-4.156-4.558zM30.252 23c-3.58 0-4.85-2.796-4.85-5.19 0-2.58 1.633-5.19 4.754-5.19 2.965 0 4.564 2.55 4.564 4.951 0 .733-.35 1.06-1.136 1.06H27.49c.085 1.552 1.18 2.58 2.78 2.58 1.384 0 2.085-.528 2.596-.913.303-.228.542-.409.83-.409.395 0 .814.32.814.913 0 1.007-2.309 2.198-4.26 2.198zM40.13 14.211c-2.056 0-2.78 1.946-2.78 3.598 0 1.653.724 3.599 2.78 3.599 2.057 0 2.78-1.946 2.78-3.599 0-1.652-.723-3.598-2.78-3.598zm2.61 7.252h-.04c-.475.881-1.37 1.34-2.702 1.34-2.742 0-4.322-2.405-4.322-4.994 0-2.588 1.58-4.993 4.322-4.993 1.332 0 2.265.716 2.703 1.322h.038V9.383c0-.533.324-.863.838-.863s.837.33.837.863V21.94c0 .533-.323.863-.837.863s-.838-.33-.838-.863v-.477z"/>
        <path fill="#9B9B9B" d="M40.13 14.408c-1.9 0-2.575 1.832-2.575 3.401 0 1.57.675 3.402 2.576 3.402 1.9 0 2.575-1.832 2.575-3.402 0-1.569-.674-3.4-2.575-3.4zm0 7.197c-2.202 0-2.983-2.045-2.983-3.796 0-1.75.781-3.795 2.984-3.795 2.202 0 2.984 2.045 2.984 3.795 0 1.751-.782 3.796-2.984 3.796zm2.447-.339h.328l.038.197v.477c0 .424.231.666.634.666.402 0 .633-.242.633-.666V9.383c0-.424-.23-.666-.633-.666s-.634.242-.634.666v4.952h-.31l-.1-.085c-.432-.598-1.325-1.237-2.535-1.237-2.704 0-4.118 2.413-4.118 4.796 0 2.384 1.414 4.797 4.118 4.797 1.248 0 2.073-.403 2.522-1.234l.057-.106zm1 1.734c-.597 0-.995-.37-1.038-.951-.558.632-1.41.951-2.541.951-2.972 0-4.526-2.611-4.526-5.19 0-2.58 1.554-5.19 4.526-5.19 1.108 0 1.984.477 2.537 1.02V9.383c0-.644.409-1.06 1.042-1.06.632 0 1.041.416 1.041 1.06V21.94c0 .644-.409 1.06-1.041 1.06zM50.715 14.211c-2.057 0-2.78 1.946-2.78 3.598 0 1.653.723 3.599 2.78 3.599 2.056 0 2.78-1.946 2.78-3.599 0-1.652-.724-3.598-2.78-3.598zm2.608 7.252h-.038c-.476.881-1.371 1.34-2.704 1.34-2.741 0-4.322-2.405-4.322-4.994 0-2.588 1.58-4.993 4.322-4.993 1.333 0 2.266.716 2.704 1.322h.038V9.383c0-.533.323-.863.838-.863.514 0 .837.33.837.863V21.94c0 .533-.323.863-.837.863-.515 0-.838-.33-.838-.863v-.477z"/>
        <path fill="#9B9B9B" d="M50.715 14.408c-1.901 0-2.576 1.832-2.576 3.401 0 1.57.675 3.402 2.576 3.402 1.9 0 2.575-1.832 2.575-3.402 0-1.569-.675-3.4-2.575-3.4zm0 7.197c-2.203 0-2.985-2.045-2.985-3.796 0-1.75.782-3.795 2.985-3.795 2.202 0 2.983 2.045 2.983 3.795 0 1.751-.781 3.796-2.983 3.796zm2.446-.339h.328l.038.197v.477c0 .424.231.666.634.666.402 0 .633-.242.633-.666V9.383c0-.424-.231-.666-.633-.666-.403 0-.634.242-.634.666v4.952h-.31l-.1-.085c-.432-.598-1.326-1.237-2.536-1.237-2.703 0-4.117 2.413-4.117 4.796 0 2.384 1.414 4.797 4.117 4.797 1.25 0 2.074-.403 2.523-1.234l.057-.106zm1 1.734c-.597 0-.995-.37-1.038-.951-.559.632-1.41.951-2.542.951-2.97 0-4.526-2.611-4.526-5.19 0-2.58 1.555-5.19 4.526-5.19 1.11 0 1.984.477 2.538 1.02V9.383c0-.644.409-1.06 1.042-1.06.632 0 1.041.416 1.041 1.06V21.94c0 .644-.409 1.06-1.041 1.06zM58.119 8.33c-1.017 0-1.845.798-1.845 1.779 0 .98.828 1.779 1.845 1.779s1.845-.799 1.845-1.78c0-.98-.828-1.779-1.845-1.779zm0 .787c.57 0 1.028.44 1.028.992 0 .55-.457.99-1.028.99-.572 0-1.029-.44-1.029-.99 0-.552.457-.992 1.029-.992zM58.957 21.94c0 .533-.324.863-.838.863-.515 0-.838-.33-.838-.863V13.68c0-.532.323-.863.838-.863.514 0 .838.33.838.863v8.261"/>
        <path fill="#9B9B9B" d="M58.119 13.013c-.403 0-.633.243-.633.666v8.261c0 .424.23.666.633.666s.634-.242.634-.666V13.68c0-.423-.231-.666-.634-.666zm0 9.987c-.633 0-1.042-.416-1.042-1.06V13.68c0-.644.41-1.06 1.042-1.06.633 0 1.042.416 1.042 1.06v8.261c0 .644-.409 1.06-1.042 1.06zM62.459 10.815c0-.533.324-.863.837-.863.515 0 .838.33.838.863v2.111h.686c.552 0 .838.257.838.697 0 .442-.286.699-.838.699h-.686v7.618c0 .533-.323.863-.838.863-.513 0-.837-.33-.837-.863v-7.618h-.685c-.552 0-.838-.257-.838-.699 0-.44.286-.697.838-.697h.685v-2.111"/>
        <path fill="#9B9B9B" d="M61.774 13.123c-.634 0-.634.377-.634.5 0 .124 0 .502.634.502h.89v7.815c0 .424.23.666.632.666.403 0 .634-.242.634-.666v-7.815h.89c.633 0 .633-.378.633-.502 0-.123 0-.5-.633-.5h-.89v-2.308c0-.424-.23-.666-.634-.666-.402 0-.633.242-.633.666v2.308h-.89zM63.296 23c-.632 0-1.041-.416-1.041-1.06V14.52h-.481c-.653 0-1.043-.335-1.043-.896 0-.56.39-.894 1.043-.894h.48v-1.914c0-.644.41-1.06 1.042-1.06.633 0 1.042.416 1.042 1.06v1.914h.482c.652 0 1.042.334 1.042.894s-.39.896-1.042.896h-.482v7.421c0 .644-.409 1.06-1.042 1.06zM5.26 19.75c-1.614-.758-2.578-2.035-2.578-3.42 0-2.252 2.565-4.085 5.718-4.085 3.152 0 5.717 1.833 5.717 4.086 0 1.334-.91 2.587-2.436 3.35l-.282-.525c1.319-.66 2.106-1.715 2.106-2.825 0-1.928-2.29-3.496-5.105-3.496-2.815 0-5.106 1.568-5.106 3.496 0 1.152.835 2.231 2.234 2.886l-.268.532"/>
        <path fill="#F0F0F0" d="M15.751 8.897c0 2.556-3.268 4.628-7.3 4.628s-7.3-2.072-7.3-4.628S4.418 4.27 8.45 4.27s7.3 2.072 7.3 4.628"/>
        <path fill="#9B9B9B" d="M8.45 4.565c-3.856 0-6.993 1.943-6.993 4.332S4.594 13.23 8.45 13.23c3.856 0 6.994-1.943 6.994-4.332S12.307 4.565 8.45 4.565zm0 9.255c-4.194 0-7.606-2.209-7.606-4.923s3.412-4.923 7.607-4.923c4.194 0 7.606 2.209 7.606 4.923s-3.412 4.923-7.606 4.923z"/>
        <g>
            <mask id="b" fill="#fff">
                <use xlink:href="#a"/>
            </mask>
            <path fill="#9B9B9B" d="M14.356.633c-.54 0-.98.424-.98.945 0 .522.44.946.98.946s.98-.424.98-.946c0-.52-.44-.945-.98-.945zm0 2.481c-.879 0-1.593-.688-1.593-1.536 0-.847.714-1.535 1.593-1.535.878 0 1.593.688 1.593 1.535 0 .848-.715 1.536-1.593 1.536zM1.005 8.393A1.874 1.874 0 0 1 0 6.748C0 5.71.875 4.867 1.95 4.867c.52 0 1.01.196 1.38.55l-.434.419a1.355 1.355 0 0 0-.946-.378c-.737 0-1.337.578-1.337 1.29 0 .468.264.9.69 1.128l-.298.517" mask="url(#b)"/>
        </g>
        <path fill="#9B9B9B" d="M15.926 8.393l-.298-.517c.426-.228.69-.66.69-1.128 0-.712-.6-1.29-1.338-1.29-.357 0-.693.134-.946.378l-.433-.418c.369-.355.859-.551 1.38-.551 1.074 0 1.95.844 1.95 1.88 0 .684-.386 1.314-1.005 1.646M4.836 8.028c0-.638.536-1.156 1.198-1.156.662 0 1.198.518 1.198 1.156 0 .638-.536 1.155-1.198 1.155-.662 0-1.198-.517-1.198-1.155M9.839 8.028c0-.638.536-1.156 1.198-1.156.662 0 1.198.518 1.198 1.156 0 .638-.536 1.155-1.198 1.155-.662 0-1.198-.517-1.198-1.155M8.468 22.944c-3.4 0-3.676-4.503-3.676-9.944h.613c0 4.929.234 9.353 3.063 9.353 2.55 0 3.063-3.579 3.063-9.353h.613c0 5.032-.284 9.944-3.676 9.944M8.502 4.434a.32.32 0 0 1-.102-.017.293.293 0 0 1-.187-.377L9.598.245l3.4.783a.295.295 0 0 1 .226.356.308.308 0 0 1-.369.22L9.992.943 8.791 4.235a.306.306 0 0 1-.29.198"/>
        <path fill="#9B9B9B" d="M13.869 22.977h-10.9l-.015-.28c-.002-.042-.046-1.008.571-1.636.336-.34.792-.513 1.355-.513h1.035c.17 0 .306.132.306.295a.301.301 0 0 1-.306.296H4.88c-.394 0-.692.107-.91.33-.266.268-.357.656-.389.917h9.667c-.034-.27-.131-.674-.406-.947-.203-.202-.473-.3-.823-.3h-1.032a.301.301 0 0 1-.307-.296c0-.163.138-.295.307-.295h1.032c.519 0 .945.163 1.266.483.624.623.596 1.618.594 1.66l-.01.286M8.437 12.033c-1.954 0-2.735-.855-2.767-.892a.288.288 0 0 1 .033-.416.315.315 0 0 1 .43.03c.018.019.67.687 2.304.687 1.662 0 2.39-.692 2.398-.699a.315.315 0 0 1 .432-.005c.12.113.125.298.009.415-.036.036-.896.88-2.84.88"/>
    </g>
</svg>
